%TF.GenerationSoftware,KiCad,Pcbnew,5.1.12-84ad8e8a86~92~ubuntu21.04.1*%
%TF.CreationDate,2021-11-06T20:53:58+01:00*%
%TF.ProjectId,adsr-3310-8,61647372-2d33-4333-9130-2d382e6b6963,v1.0.0*%
%TF.SameCoordinates,Original*%
%TF.FileFunction,Soldermask,Top*%
%TF.FilePolarity,Negative*%
%FSLAX46Y46*%
G04 Gerber Fmt 4.6, Leading zero omitted, Abs format (unit mm)*
G04 Created by KiCad (PCBNEW 5.1.12-84ad8e8a86~92~ubuntu21.04.1) date 2021-11-06 20:53:58*
%MOMM*%
%LPD*%
G01*
G04 APERTURE LIST*
%ADD10O,1.600000X2.400000*%
%ADD11R,1.600000X2.400000*%
%ADD12C,2.340000*%
%ADD13O,1.600000X1.600000*%
%ADD14C,1.600000*%
%ADD15O,1.740000X2.190000*%
%ADD16C,2.000000*%
%ADD17C,1.700000*%
%ADD18R,1.600000X1.600000*%
G04 APERTURE END LIST*
D10*
%TO.C,U9*%
X96140000Y-183400000D03*
X78360000Y-175780000D03*
X93600000Y-183400000D03*
X80900000Y-175780000D03*
X91060000Y-183400000D03*
X83440000Y-175780000D03*
X88520000Y-183400000D03*
X85980000Y-175780000D03*
X85980000Y-183400000D03*
X88520000Y-175780000D03*
X83440000Y-183400000D03*
X91060000Y-175780000D03*
X80900000Y-183400000D03*
X93600000Y-175780000D03*
X78360000Y-183400000D03*
D11*
X96140000Y-175780000D03*
%TD*%
D10*
%TO.C,U8*%
X126400000Y-174710000D03*
X144180000Y-182330000D03*
X128940000Y-174710000D03*
X141640000Y-182330000D03*
X131480000Y-174710000D03*
X139100000Y-182330000D03*
X134020000Y-174710000D03*
X136560000Y-182330000D03*
X136560000Y-174710000D03*
X134020000Y-182330000D03*
X139100000Y-174710000D03*
X131480000Y-182330000D03*
X141640000Y-174710000D03*
X128940000Y-182330000D03*
X144180000Y-174710000D03*
D11*
X126400000Y-182330000D03*
%TD*%
D10*
%TO.C,U7*%
X96170000Y-158800000D03*
X78390000Y-151180000D03*
X93630000Y-158800000D03*
X80930000Y-151180000D03*
X91090000Y-158800000D03*
X83470000Y-151180000D03*
X88550000Y-158800000D03*
X86010000Y-151180000D03*
X86010000Y-158800000D03*
X88550000Y-151180000D03*
X83470000Y-158800000D03*
X91090000Y-151180000D03*
X80930000Y-158800000D03*
X93630000Y-151180000D03*
X78390000Y-158800000D03*
D11*
X96170000Y-151180000D03*
%TD*%
D10*
%TO.C,U6*%
X126360000Y-149990000D03*
X144140000Y-157610000D03*
X128900000Y-149990000D03*
X141600000Y-157610000D03*
X131440000Y-149990000D03*
X139060000Y-157610000D03*
X133980000Y-149990000D03*
X136520000Y-157610000D03*
X136520000Y-149990000D03*
X133980000Y-157610000D03*
X139060000Y-149990000D03*
X131440000Y-157610000D03*
X141600000Y-149990000D03*
X128900000Y-157610000D03*
X144140000Y-149990000D03*
D11*
X126360000Y-157610000D03*
%TD*%
D10*
%TO.C,U5*%
X96200000Y-134200000D03*
X78420000Y-126580000D03*
X93660000Y-134200000D03*
X80960000Y-126580000D03*
X91120000Y-134200000D03*
X83500000Y-126580000D03*
X88580000Y-134200000D03*
X86040000Y-126580000D03*
X86040000Y-134200000D03*
X88580000Y-126580000D03*
X83500000Y-134200000D03*
X91120000Y-126580000D03*
X80960000Y-134200000D03*
X93660000Y-126580000D03*
X78420000Y-134200000D03*
D11*
X96200000Y-126580000D03*
%TD*%
D10*
%TO.C,U4*%
X126430000Y-125290000D03*
X144210000Y-132910000D03*
X128970000Y-125290000D03*
X141670000Y-132910000D03*
X131510000Y-125290000D03*
X139130000Y-132910000D03*
X134050000Y-125290000D03*
X136590000Y-132910000D03*
X136590000Y-125290000D03*
X134050000Y-132910000D03*
X139130000Y-125290000D03*
X131510000Y-132910000D03*
X141670000Y-125290000D03*
X128970000Y-132910000D03*
X144210000Y-125290000D03*
D11*
X126430000Y-132910000D03*
%TD*%
D10*
%TO.C,U3*%
X96200000Y-109410000D03*
X78420000Y-101790000D03*
X93660000Y-109410000D03*
X80960000Y-101790000D03*
X91120000Y-109410000D03*
X83500000Y-101790000D03*
X88580000Y-109410000D03*
X86040000Y-101790000D03*
X86040000Y-109410000D03*
X88580000Y-101790000D03*
X83500000Y-109410000D03*
X91120000Y-101790000D03*
X80960000Y-109410000D03*
X93660000Y-101790000D03*
X78420000Y-109410000D03*
D11*
X96200000Y-101790000D03*
%TD*%
D12*
%TO.C,RV11*%
X66640000Y-181780000D03*
X69140000Y-176780000D03*
X71640000Y-181780000D03*
%TD*%
%TO.C,RV10*%
X155900000Y-176330000D03*
X153400000Y-181330000D03*
X150900000Y-176330000D03*
%TD*%
%TO.C,RV9*%
X66670000Y-157180000D03*
X69170000Y-152180000D03*
X71670000Y-157180000D03*
%TD*%
%TO.C,RV7*%
X155860000Y-151610000D03*
X153360000Y-156610000D03*
X150860000Y-151610000D03*
%TD*%
%TO.C,RV6*%
X66700000Y-132580001D03*
X69200000Y-127580001D03*
X71700000Y-132580001D03*
%TD*%
%TO.C,RV5*%
X155930000Y-126910000D03*
X153430000Y-131910000D03*
X150930000Y-126910000D03*
%TD*%
%TO.C,RV4*%
X66700000Y-107790000D03*
X69200000Y-102790000D03*
X71700000Y-107790000D03*
%TD*%
D13*
%TO.C,R38*%
X76800000Y-187680000D03*
D14*
X66640000Y-187680000D03*
%TD*%
D13*
%TO.C,R37*%
X96700000Y-171980000D03*
D14*
X86540000Y-171980000D03*
%TD*%
D13*
%TO.C,R36*%
X86480000Y-168580000D03*
D14*
X96640000Y-168580000D03*
%TD*%
D13*
%TO.C,R35*%
X145740000Y-170430000D03*
D14*
X155900000Y-170430000D03*
%TD*%
D13*
%TO.C,R34*%
X125840000Y-186130000D03*
D14*
X136000000Y-186130000D03*
%TD*%
D13*
%TO.C,R33*%
X136060000Y-189530000D03*
D14*
X125900000Y-189530000D03*
%TD*%
D13*
%TO.C,R32*%
X76830000Y-163080000D03*
D14*
X66670000Y-163080000D03*
%TD*%
D13*
%TO.C,R31*%
X96730000Y-147380000D03*
D14*
X86570000Y-147380000D03*
%TD*%
D13*
%TO.C,R30*%
X86510000Y-143980000D03*
D14*
X96670000Y-143980000D03*
%TD*%
D13*
%TO.C,R29*%
X145700000Y-145710000D03*
D14*
X155860000Y-145710000D03*
%TD*%
D13*
%TO.C,R28*%
X125800000Y-161410000D03*
D14*
X135960000Y-161410000D03*
%TD*%
D13*
%TO.C,R27*%
X136020000Y-164810000D03*
D14*
X125860000Y-164810000D03*
%TD*%
D13*
%TO.C,R26*%
X76860000Y-138480001D03*
D14*
X66700000Y-138480001D03*
%TD*%
D13*
%TO.C,R25*%
X96760000Y-122780000D03*
D14*
X86600000Y-122780000D03*
%TD*%
D13*
%TO.C,R24*%
X86540000Y-119380000D03*
D14*
X96700000Y-119380000D03*
%TD*%
D13*
%TO.C,R23*%
X145770000Y-121010000D03*
D14*
X155930000Y-121010000D03*
%TD*%
D13*
%TO.C,R22*%
X125870000Y-136710000D03*
D14*
X136030000Y-136710000D03*
%TD*%
D13*
%TO.C,R18*%
X136090000Y-140110000D03*
D14*
X125930000Y-140110000D03*
%TD*%
D13*
%TO.C,R17*%
X76860000Y-113690000D03*
D14*
X66700000Y-113690000D03*
%TD*%
D13*
%TO.C,R16*%
X96760000Y-97990000D03*
D14*
X86600000Y-97990000D03*
%TD*%
D13*
%TO.C,R15*%
X86540000Y-94590000D03*
D14*
X96700000Y-94590000D03*
%TD*%
%TO.C,C52*%
X83540000Y-187480000D03*
X83540000Y-189980000D03*
%TD*%
%TO.C,C51*%
X83540000Y-171580000D03*
X83540000Y-169080000D03*
%TD*%
%TO.C,C50*%
X96440000Y-188480000D03*
X91440000Y-188480000D03*
%TD*%
%TO.C,C49*%
X71640000Y-170580000D03*
X66640000Y-170580000D03*
%TD*%
%TO.C,C48*%
X76740000Y-171580000D03*
X76740000Y-169080000D03*
%TD*%
%TO.C,C47*%
X80140000Y-169080000D03*
X80140000Y-171580000D03*
%TD*%
%TO.C,C46*%
X139000000Y-170630000D03*
X139000000Y-168130000D03*
%TD*%
%TO.C,C45*%
X139000000Y-186530000D03*
X139000000Y-189030000D03*
%TD*%
%TO.C,C44*%
X126100000Y-169630000D03*
X131100000Y-169630000D03*
%TD*%
%TO.C,C43*%
X150900000Y-187530000D03*
X155900000Y-187530000D03*
%TD*%
%TO.C,C42*%
X145800000Y-186530000D03*
X145800000Y-189030000D03*
%TD*%
%TO.C,C41*%
X142400000Y-189030000D03*
X142400000Y-186530000D03*
%TD*%
%TO.C,C40*%
X83570000Y-162880000D03*
X83570000Y-165380000D03*
%TD*%
%TO.C,C39*%
X83570000Y-146980000D03*
X83570000Y-144480000D03*
%TD*%
%TO.C,C38*%
X96470001Y-163880000D03*
X91470001Y-163880000D03*
%TD*%
%TO.C,C37*%
X71670000Y-145980000D03*
X66670000Y-145980000D03*
%TD*%
%TO.C,C36*%
X76770000Y-146980000D03*
X76770000Y-144480000D03*
%TD*%
%TO.C,C35*%
X80170000Y-144480000D03*
X80170000Y-146980000D03*
%TD*%
%TO.C,C34*%
X138960000Y-145910000D03*
X138960000Y-143410000D03*
%TD*%
%TO.C,C33*%
X138960000Y-161810000D03*
X138960000Y-164310000D03*
%TD*%
%TO.C,C32*%
X126060000Y-144910000D03*
X131060000Y-144910000D03*
%TD*%
%TO.C,C31*%
X150860000Y-162810000D03*
X155860000Y-162810000D03*
%TD*%
%TO.C,C30*%
X145760000Y-161810000D03*
X145760000Y-164310000D03*
%TD*%
%TO.C,C29*%
X142360000Y-164310000D03*
X142360000Y-161810000D03*
%TD*%
%TO.C,C28*%
X83600000Y-138280000D03*
X83600000Y-140780000D03*
%TD*%
%TO.C,C27*%
X83600000Y-122380000D03*
X83600000Y-119880000D03*
%TD*%
%TO.C,C26*%
X96500000Y-139280000D03*
X91500000Y-139280000D03*
%TD*%
%TO.C,C25*%
X71700000Y-121380000D03*
X66700000Y-121380000D03*
%TD*%
%TO.C,C24*%
X76800000Y-122380000D03*
X76800000Y-119880000D03*
%TD*%
%TO.C,C23*%
X80200000Y-119880000D03*
X80200000Y-122380000D03*
%TD*%
%TO.C,C22*%
X139030000Y-121210000D03*
X139030000Y-118710000D03*
%TD*%
%TO.C,C21*%
X139030000Y-137110000D03*
X139030000Y-139610000D03*
%TD*%
%TO.C,C20*%
X126130000Y-120210000D03*
X131130000Y-120210000D03*
%TD*%
%TO.C,C19*%
X150930000Y-138110000D03*
X155930000Y-138110000D03*
%TD*%
%TO.C,C18*%
X145830000Y-137110000D03*
X145830000Y-139610000D03*
%TD*%
%TO.C,C17*%
X142430000Y-139610000D03*
X142430000Y-137110000D03*
%TD*%
%TO.C,C16*%
X83600000Y-113490000D03*
X83600000Y-115990000D03*
%TD*%
%TO.C,C15*%
X83600000Y-97590000D03*
X83600000Y-95090000D03*
%TD*%
%TO.C,C14*%
X96500000Y-114490000D03*
X91500000Y-114490000D03*
%TD*%
%TO.C,C13*%
X71700000Y-96590000D03*
X66700000Y-96590000D03*
%TD*%
%TO.C,C12*%
X76800000Y-97590000D03*
X76800000Y-95090000D03*
%TD*%
%TO.C,C11*%
X80200000Y-95090000D03*
X80200000Y-97590000D03*
%TD*%
%TO.C,C6*%
X145800000Y-112500000D03*
X145800000Y-115000000D03*
%TD*%
%TO.C,C5*%
X142400000Y-115000000D03*
X142400000Y-112500000D03*
%TD*%
D15*
%TO.C,J6*%
X92080000Y-67700000D03*
X94620000Y-67700000D03*
X97160000Y-67700000D03*
G36*
G01*
X100570000Y-66854999D02*
X100570000Y-68545001D01*
G75*
G02*
X100320001Y-68795000I-249999J0D01*
G01*
X99079999Y-68795000D01*
G75*
G02*
X98830000Y-68545001I0J249999D01*
G01*
X98830000Y-66854999D01*
G75*
G02*
X99079999Y-66605000I249999J0D01*
G01*
X100320001Y-66605000D01*
G75*
G02*
X100570000Y-66854999I0J-249999D01*
G01*
G37*
%TD*%
D10*
%TO.C,U2*%
X126400000Y-100680000D03*
X144180000Y-108300000D03*
X128940000Y-100680000D03*
X141640000Y-108300000D03*
X131480000Y-100680000D03*
X139100000Y-108300000D03*
X134020000Y-100680000D03*
X136560000Y-108300000D03*
X136560000Y-100680000D03*
X134020000Y-108300000D03*
X139100000Y-100680000D03*
X131480000Y-108300000D03*
X141640000Y-100680000D03*
X128940000Y-108300000D03*
X144180000Y-100680000D03*
D11*
X126400000Y-108300000D03*
%TD*%
D10*
%TO.C,U1*%
X116900000Y-82920000D03*
X101660000Y-75300000D03*
X114360000Y-82920000D03*
X104200000Y-75300000D03*
X111820000Y-82920000D03*
X106740000Y-75300000D03*
X109280000Y-82920000D03*
X109280000Y-75300000D03*
X106740000Y-82920000D03*
X111820000Y-75300000D03*
X104200000Y-82920000D03*
X114360000Y-75300000D03*
X101660000Y-82920000D03*
D11*
X116900000Y-75300000D03*
%TD*%
D16*
%TO.C,TP3*%
X140000000Y-90000000D03*
%TD*%
%TO.C,TP4*%
X145000000Y-90000000D03*
%TD*%
%TO.C,TP2*%
X135000000Y-90000000D03*
%TD*%
%TO.C,TP1*%
X130000000Y-90000000D03*
%TD*%
D12*
%TO.C,RV8*%
X155900000Y-102300000D03*
X153400000Y-107300000D03*
X150900000Y-102300000D03*
%TD*%
%TO.C,RV3*%
X91000000Y-82000000D03*
X96000000Y-84500000D03*
X91000000Y-87000000D03*
%TD*%
%TO.C,RV2*%
X81000000Y-82000000D03*
X86000000Y-84500000D03*
X81000000Y-87000000D03*
%TD*%
%TO.C,RV1*%
X71000000Y-82000000D03*
X76000000Y-84500000D03*
X71000000Y-87000000D03*
%TD*%
D13*
%TO.C,R21*%
X145740000Y-96400000D03*
D14*
X155900000Y-96400000D03*
%TD*%
D13*
%TO.C,R20*%
X125840000Y-112100000D03*
D14*
X136000000Y-112100000D03*
%TD*%
D13*
%TO.C,R19*%
X136060000Y-115500000D03*
D14*
X125900000Y-115500000D03*
%TD*%
D13*
%TO.C,R14*%
X144360000Y-77700000D03*
D14*
X134200000Y-77700000D03*
%TD*%
D13*
%TO.C,R13*%
X157160000Y-77700000D03*
D14*
X147000000Y-77700000D03*
%TD*%
D13*
%TO.C,R12*%
X157160000Y-84300000D03*
D14*
X147000000Y-84300000D03*
%TD*%
D13*
%TO.C,R11*%
X144360000Y-84300000D03*
D14*
X134200000Y-84300000D03*
%TD*%
D13*
%TO.C,R10*%
X131560000Y-84300000D03*
D14*
X121400000Y-84300000D03*
%TD*%
D13*
%TO.C,R9*%
X157160000Y-81000000D03*
D14*
X147000000Y-81000000D03*
%TD*%
D13*
%TO.C,R8*%
X144360000Y-81000000D03*
D14*
X134200000Y-81000000D03*
%TD*%
D13*
%TO.C,R7*%
X131560000Y-81000000D03*
D14*
X121400000Y-81000000D03*
%TD*%
D13*
%TO.C,R6*%
X87600000Y-65840000D03*
D14*
X87600000Y-76000000D03*
%TD*%
D13*
%TO.C,R5*%
X81000000Y-65840000D03*
D14*
X81000000Y-76000000D03*
%TD*%
D13*
%TO.C,R4*%
X74400000Y-65840000D03*
D14*
X74400000Y-76000000D03*
%TD*%
D13*
%TO.C,R3*%
X84300000Y-65840000D03*
D14*
X84300000Y-76000000D03*
%TD*%
D13*
%TO.C,R2*%
X77700000Y-65840000D03*
D14*
X77700000Y-76000000D03*
%TD*%
D13*
%TO.C,R1*%
X71100000Y-65840000D03*
D14*
X71100000Y-76000000D03*
%TD*%
D17*
%TO.C,J5*%
X112540000Y-182780000D03*
X112540000Y-180240000D03*
X112540000Y-177700000D03*
X112540000Y-175160000D03*
X112540000Y-172620000D03*
X112540000Y-170080000D03*
X112540000Y-167540000D03*
X112540000Y-165000000D03*
X110000000Y-182780000D03*
X110000000Y-180240000D03*
X110000000Y-177700000D03*
X110000000Y-175160000D03*
X110000000Y-172620000D03*
X110000000Y-170080000D03*
X110000000Y-167540000D03*
G36*
G01*
X109150000Y-165600000D02*
X109150000Y-164400000D01*
G75*
G02*
X109400000Y-164150000I250000J0D01*
G01*
X110600000Y-164150000D01*
G75*
G02*
X110850000Y-164400000I0J-250000D01*
G01*
X110850000Y-165600000D01*
G75*
G02*
X110600000Y-165850000I-250000J0D01*
G01*
X109400000Y-165850000D01*
G75*
G02*
X109150000Y-165600000I0J250000D01*
G01*
G37*
%TD*%
%TO.C,J4*%
X112540000Y-147780000D03*
X112540000Y-145240000D03*
X112540000Y-142700000D03*
X112540000Y-140160000D03*
X112540000Y-137620000D03*
X112540000Y-135080000D03*
X112540000Y-132540000D03*
X112540000Y-130000000D03*
X110000000Y-147780000D03*
X110000000Y-145240000D03*
X110000000Y-142700000D03*
X110000000Y-140160000D03*
X110000000Y-137620000D03*
X110000000Y-135080000D03*
X110000000Y-132540000D03*
G36*
G01*
X109150000Y-130600000D02*
X109150000Y-129400000D01*
G75*
G02*
X109400000Y-129150000I250000J0D01*
G01*
X110600000Y-129150000D01*
G75*
G02*
X110850000Y-129400000I0J-250000D01*
G01*
X110850000Y-130600000D01*
G75*
G02*
X110600000Y-130850000I-250000J0D01*
G01*
X109400000Y-130850000D01*
G75*
G02*
X109150000Y-130600000I0J250000D01*
G01*
G37*
%TD*%
%TO.C,J3*%
X112540000Y-112780000D03*
X112540000Y-110240000D03*
X112540000Y-107700000D03*
X112540000Y-105160000D03*
X112540000Y-102620000D03*
X112540000Y-100080000D03*
X112540000Y-97540000D03*
X112540000Y-95000000D03*
X110000000Y-112780000D03*
X110000000Y-110240000D03*
X110000000Y-107700000D03*
X110000000Y-105160000D03*
X110000000Y-102620000D03*
X110000000Y-100080000D03*
X110000000Y-97540000D03*
G36*
G01*
X109150000Y-95600000D02*
X109150000Y-94400000D01*
G75*
G02*
X109400000Y-94150000I250000J0D01*
G01*
X110600000Y-94150000D01*
G75*
G02*
X110850000Y-94400000I0J-250000D01*
G01*
X110850000Y-95600000D01*
G75*
G02*
X110600000Y-95850000I-250000J0D01*
G01*
X109400000Y-95850000D01*
G75*
G02*
X109150000Y-95600000I0J250000D01*
G01*
G37*
%TD*%
%TO.C,J2*%
X148360000Y-67960000D03*
X145820000Y-67960000D03*
X143280000Y-67960000D03*
X140740000Y-67960000D03*
X138200000Y-67960000D03*
X148360000Y-70500000D03*
X145820000Y-70500000D03*
X143280000Y-70500000D03*
X140740000Y-70500000D03*
G36*
G01*
X138800000Y-71350000D02*
X137600000Y-71350000D01*
G75*
G02*
X137350000Y-71100000I0J250000D01*
G01*
X137350000Y-69900000D01*
G75*
G02*
X137600000Y-69650000I250000J0D01*
G01*
X138800000Y-69650000D01*
G75*
G02*
X139050000Y-69900000I0J-250000D01*
G01*
X139050000Y-71100000D01*
G75*
G02*
X138800000Y-71350000I-250000J0D01*
G01*
G37*
%TD*%
D15*
%TO.C,J1*%
X103800000Y-67700000D03*
X106340000Y-67700000D03*
X108880000Y-67700000D03*
X111420000Y-67700000D03*
X113960000Y-67700000D03*
G36*
G01*
X117370000Y-66854999D02*
X117370000Y-68545001D01*
G75*
G02*
X117120001Y-68795000I-249999J0D01*
G01*
X115879999Y-68795000D01*
G75*
G02*
X115630000Y-68545001I0J249999D01*
G01*
X115630000Y-66854999D01*
G75*
G02*
X115879999Y-66605000I249999J0D01*
G01*
X117120001Y-66605000D01*
G75*
G02*
X117370000Y-66854999I0J-249999D01*
G01*
G37*
%TD*%
D14*
%TO.C,C10*%
X139000000Y-112500000D03*
X139000000Y-115000000D03*
%TD*%
%TO.C,C9*%
X139000000Y-96600000D03*
X139000000Y-94100000D03*
%TD*%
%TO.C,C8*%
X126100000Y-95600000D03*
X131100000Y-95600000D03*
%TD*%
%TO.C,C7*%
X150900000Y-113500000D03*
X155900000Y-113500000D03*
%TD*%
%TO.C,C4*%
X109300000Y-86500000D03*
X111800000Y-86500000D03*
%TD*%
%TO.C,C3*%
X96100000Y-75300000D03*
X93600000Y-75300000D03*
%TD*%
%TO.C,C2*%
X129400000Y-74100000D03*
D18*
X126900000Y-74100000D03*
%TD*%
D14*
%TO.C,C1*%
X123800000Y-68000000D03*
D18*
X121300000Y-68000000D03*
%TD*%
M02*
