M48
; DRILL file {KiCad 5.1.12-84ad8e8a86~92~ubuntu21.04.1} date Sa 06 Nov 2021 20:53:56 CET
; FORMAT={-:-/ absolute / inch / decimal}
; #@! TF.CreationDate,2021-11-06T20:53:56+01:00
; #@! TF.GenerationSoftware,Kicad,Pcbnew,5.1.12-84ad8e8a86~92~ubuntu21.04.1
; #@! TF.FileFunction,Plated,1,2,PTH
FMAT,2
INCH
T1C0.0150
T2C0.0315
T3C0.0394
T4C0.0469
T5C0.0512
T6C0.1260
%
G90
G05
T1
X2.5317Y-5.1101
X2.5317Y-6.0825
X2.5597Y-5.5978
X3.3425Y-7.5591
X3.8752Y-3.2019
X3.9216Y-6.2083
X3.9494Y-6.208
X3.9773Y-4.6802
X3.9773Y-6.2077
X4.0394Y-6.4528
X4.0751Y-5.5233
X4.1339Y-4.7126
X4.136Y-5.1277
X4.136Y-6.0923
X4.1614Y-4.7402
X4.1614Y-5.1535
X4.1614Y-6.1181
X4.1929Y-4.7677
X4.1929Y-5.1811
X4.1929Y-6.1457
X4.2205Y-4.7953
X4.2205Y-5.2087
X4.2205Y-6.1732
X4.252Y-2.8346
X4.5157Y-4.7953
X4.5157Y-5.0157
X4.5157Y-5.9724
X4.5157Y-6.9567
X4.5433Y-4.7677
X4.5433Y-5.0433
X4.5433Y-6.0
X4.5433Y-6.9843
X4.5709Y-4.7402
X4.5709Y-5.0709
X4.5709Y-6.0276
X4.5709Y-7.0118
X4.6024Y-4.7126
X4.6024Y-5.0984
X4.6024Y-6.0551
X4.6024Y-7.0394
X4.6929Y-6.3543
X4.7126Y-5.4764
X4.7126Y-5.5984
X4.7907Y-4.977
X4.7907Y-6.162
X4.7913Y-4.3898
X4.8186Y-6.1617
X6.2029Y-4.6239
X6.2029Y-5.5806
X6.2029Y-6.5569
X6.2368Y-4.0979
X6.2368Y-5.0861
X6.2368Y-6.0546
X6.2368Y-7.0191
T2
X2.6236Y-6.7157
X2.6236Y-7.389
X2.6248Y-5.7472
X2.6248Y-6.4205
X2.626Y-3.8028
X2.626Y-4.476
X2.626Y-4.7787
X2.626Y-5.452
X2.7992Y-2.5921
X2.7992Y-2.9921
X2.8205Y-6.7157
X2.8217Y-5.7472
X2.8228Y-3.8028
X2.8228Y-4.7787
X2.9291Y-2.5921
X2.9291Y-2.9921
X3.0213Y-6.6567
X3.0213Y-6.7551
X3.0224Y-5.6882
X3.0224Y-5.7866
X3.0236Y-3.7437
X3.0236Y-3.8421
X3.0236Y-4.7197
X3.0236Y-4.8181
X3.0236Y-7.389
X3.0248Y-6.4205
X3.026Y-4.476
X3.026Y-5.452
X3.0591Y-2.5921
X3.0591Y-2.9921
X3.085Y-6.9205
X3.085Y-7.2205
X3.0862Y-5.952
X3.0862Y-6.252
X3.0874Y-4.0075
X3.0874Y-4.3075
X3.0874Y-4.9835
X3.0874Y-5.2835
X3.1551Y-6.6567
X3.1551Y-6.7551
X3.1563Y-5.6882
X3.1563Y-5.7866
X3.1575Y-3.7437
X3.1575Y-3.8421
X3.1575Y-4.7197
X3.1575Y-4.8181
X3.185Y-6.9205
X3.185Y-7.2205
X3.1862Y-5.952
X3.1862Y-6.252
X3.1874Y-4.0075
X3.1874Y-4.3075
X3.1874Y-4.9835
X3.1874Y-5.2835
X3.189Y-2.5921
X3.189Y-2.9921
X3.285Y-6.9205
X3.285Y-7.2205
X3.2862Y-5.952
X3.2862Y-6.252
X3.2874Y-4.0075
X3.2874Y-4.3075
X3.2874Y-4.9835
X3.2874Y-5.2835
X3.289Y-6.6567
X3.289Y-6.7551
X3.289Y-7.3811
X3.289Y-7.4795
X3.2902Y-5.6882
X3.2902Y-5.7866
X3.2902Y-6.4126
X3.2902Y-6.511
X3.2913Y-3.7437
X3.2913Y-3.8421
X3.2913Y-4.4681
X3.2913Y-4.5665
X3.2913Y-4.7197
X3.2913Y-4.8181
X3.2913Y-5.4441
X3.2913Y-5.5425
X3.3189Y-2.5921
X3.3189Y-2.9921
X3.385Y-6.9205
X3.385Y-7.2205
X3.3862Y-5.952
X3.3862Y-6.252
X3.3874Y-4.0075
X3.3874Y-4.3075
X3.3874Y-4.9835
X3.3874Y-5.2835
X3.4047Y-6.637
X3.4059Y-5.6685
X3.4071Y-3.724
X3.4071Y-4.7
X3.4071Y-6.7709
X3.4083Y-5.8024
X3.4094Y-3.8579
X3.4094Y-4.8339
X3.4488Y-2.5921
X3.4488Y-2.9921
X3.485Y-6.9205
X3.485Y-7.2205
X3.4862Y-5.952
X3.4862Y-6.252
X3.4874Y-4.0075
X3.4874Y-4.3075
X3.4874Y-4.9835
X3.4874Y-5.2835
X3.585Y-6.9205
X3.585Y-7.2205
X3.5862Y-5.952
X3.5862Y-6.252
X3.5874Y-4.0075
X3.5874Y-4.3075
X3.5874Y-4.9835
X3.5874Y-5.2835
X3.6Y-7.4205
X3.6012Y-6.452
X3.6024Y-4.5075
X3.6024Y-5.4835
X3.685Y-2.9646
X3.685Y-6.9205
X3.685Y-7.2205
X3.6862Y-5.952
X3.6862Y-6.252
X3.6874Y-4.0075
X3.6874Y-4.3075
X3.6874Y-4.9835
X3.6874Y-5.2835
X3.7835Y-2.9646
X3.785Y-6.9205
X3.785Y-7.2205
X3.7862Y-5.952
X3.7862Y-6.252
X3.7874Y-4.0075
X3.7874Y-4.3075
X3.7874Y-4.9835
X3.7874Y-5.2835
X3.7969Y-7.4205
X3.798Y-6.452
X3.7992Y-4.5075
X3.7992Y-5.4835
X3.8047Y-6.637
X3.8059Y-5.6685
X3.8071Y-3.724
X3.8071Y-4.7
X3.8071Y-6.7709
X3.8083Y-5.8024
X3.8094Y-3.8579
X3.8094Y-4.8339
X4.0024Y-2.9646
X4.0024Y-3.2646
X4.1024Y-2.9646
X4.1024Y-3.2646
X4.2024Y-2.9646
X4.2024Y-3.2646
X4.3024Y-2.9646
X4.3024Y-3.2646
X4.3031Y-3.4055
X4.4016Y-3.4055
X4.4024Y-2.9646
X4.4024Y-3.2646
X4.5024Y-2.9646
X4.5024Y-3.2646
X4.6024Y-2.9646
X4.6024Y-3.2646
X4.7756Y-2.6772
X4.7795Y-3.189
X4.7795Y-3.3189
X4.874Y-2.6772
X4.9528Y-6.3547
X4.9543Y-4.4134
X4.9543Y-7.328
X4.9551Y-6.4886
X4.9555Y-5.3823
X4.9567Y-4.5472
X4.9567Y-7.4618
X4.9579Y-5.5161
X4.963Y-5.7051
X4.9646Y-3.7638
X4.9646Y-6.6783
X4.9657Y-4.7327
X4.9748Y-5.9051
X4.9748Y-6.2051
X4.9764Y-3.9638
X4.9764Y-4.2638
X4.9764Y-6.8783
X4.9764Y-7.1783
X4.9776Y-4.9327
X4.9776Y-5.2327
X4.9961Y-2.9173
X5.0748Y-5.9051
X5.0748Y-6.2051
X5.0764Y-3.9638
X5.0764Y-4.2638
X5.0764Y-6.8783
X5.0764Y-7.1783
X5.0776Y-4.9327
X5.0776Y-5.2327
X5.0945Y-2.9173
X5.1598Y-5.7051
X5.1614Y-3.7638
X5.1614Y-6.6783
X5.1626Y-4.7327
X5.1748Y-5.9051
X5.1748Y-6.2051
X5.1764Y-3.9638
X5.1764Y-4.2638
X5.1764Y-6.8783
X5.1764Y-7.1783
X5.1776Y-4.9327
X5.1776Y-5.2327
X5.1795Y-3.189
X5.1795Y-3.3189
X5.2748Y-5.9051
X5.2748Y-6.2051
X5.2764Y-3.9638
X5.2764Y-4.2638
X5.2764Y-6.8783
X5.2764Y-7.1783
X5.2776Y-4.9327
X5.2776Y-5.2327
X5.2835Y-3.0591
X5.2835Y-3.189
X5.2835Y-3.3189
X5.3528Y-6.3547
X5.3543Y-4.4134
X5.3543Y-7.328
X5.3551Y-6.4886
X5.3555Y-5.3823
X5.3567Y-4.5472
X5.3567Y-7.4618
X5.3579Y-5.5161
X5.3748Y-5.9051
X5.3748Y-6.2051
X5.3764Y-3.9638
X5.3764Y-4.2638
X5.3764Y-6.8783
X5.3764Y-7.1783
X5.3776Y-4.9327
X5.3776Y-5.2327
X5.4709Y-5.6461
X5.4709Y-5.7445
X5.4709Y-6.3705
X5.4709Y-6.4689
X5.4724Y-3.7047
X5.4724Y-3.8031
X5.4724Y-4.4291
X5.4724Y-4.5276
X5.4724Y-6.6193
X5.4724Y-6.7177
X5.4724Y-7.3437
X5.4724Y-7.4421
X5.4736Y-4.6736
X5.4736Y-4.772
X5.4736Y-5.398
X5.4736Y-5.4965
X5.4748Y-5.9051
X5.4748Y-6.2051
X5.4764Y-3.9638
X5.4764Y-4.2638
X5.4764Y-6.8783
X5.4764Y-7.1783
X5.4776Y-4.9327
X5.4776Y-5.2327
X5.5748Y-5.9051
X5.5748Y-6.2051
X5.5764Y-3.9638
X5.5764Y-4.2638
X5.5764Y-6.8783
X5.5764Y-7.1783
X5.5776Y-4.9327
X5.5776Y-5.2327
X5.6047Y-6.3705
X5.6047Y-6.4689
X5.6063Y-4.4291
X5.6063Y-4.5276
X5.6063Y-7.3437
X5.6063Y-7.4421
X5.6075Y-5.398
X5.6075Y-5.4965
X5.6748Y-5.9051
X5.6748Y-6.2051
X5.6764Y-3.9638
X5.6764Y-4.2638
X5.6764Y-6.8783
X5.6764Y-7.1783
X5.6776Y-4.9327
X5.6776Y-5.2327
X5.6835Y-3.0591
X5.6835Y-3.189
X5.6835Y-3.3189
X5.7362Y-5.7366
X5.7378Y-3.7953
X5.7378Y-6.7098
X5.7386Y-6.3705
X5.7386Y-6.4689
X5.739Y-4.7642
X5.7402Y-4.4291
X5.7402Y-4.5276
X5.7402Y-7.3437
X5.7402Y-7.4421
X5.7413Y-5.398
X5.7413Y-5.4965
X5.7874Y-3.0591
X5.7874Y-3.189
X5.7874Y-3.3189
X5.9394Y-6.4098
X5.9409Y-4.4685
X5.9409Y-7.3831
X5.9421Y-5.4374
X6.1362Y-5.7366
X6.1362Y-6.4098
X6.1378Y-3.7953
X6.1378Y-4.4685
X6.1378Y-6.7098
X6.1378Y-7.3831
X6.139Y-4.7642
X6.139Y-5.4374
X6.1874Y-3.0591
X6.1874Y-3.189
X6.1874Y-3.3189
T3
X4.3307Y-3.7402
X4.3307Y-3.8402
X4.3307Y-3.9402
X4.3307Y-4.0402
X4.3307Y-4.1402
X4.3307Y-4.2402
X4.3307Y-4.3402
X4.3307Y-4.4402
X4.3307Y-5.1181
X4.3307Y-5.2181
X4.3307Y-5.3181
X4.3307Y-5.4181
X4.3307Y-5.5181
X4.3307Y-5.6181
X4.3307Y-5.7181
X4.3307Y-5.8181
X4.3307Y-6.4961
X4.3307Y-6.5961
X4.3307Y-6.6961
X4.3307Y-6.7961
X4.3307Y-6.8961
X4.3307Y-6.9961
X4.3307Y-7.0961
X4.3307Y-7.1961
X4.4307Y-3.7402
X4.4307Y-3.8402
X4.4307Y-3.9402
X4.4307Y-4.0402
X4.4307Y-4.1402
X4.4307Y-4.2402
X4.4307Y-4.3402
X4.4307Y-4.4402
X4.4307Y-5.1181
X4.4307Y-5.2181
X4.4307Y-5.3181
X4.4307Y-5.4181
X4.4307Y-5.5181
X4.4307Y-5.6181
X4.4307Y-5.7181
X4.4307Y-5.8181
X4.4307Y-6.4961
X4.4307Y-6.5961
X4.4307Y-6.6961
X4.4307Y-6.7961
X4.4307Y-6.8961
X4.4307Y-6.9961
X4.4307Y-7.0961
X4.4307Y-7.1961
X5.1181Y-3.5433
X5.315Y-3.5433
X5.4409Y-2.6756
X5.4409Y-2.7756
X5.5118Y-3.5433
X5.5409Y-2.6756
X5.5409Y-2.7756
X5.6409Y-2.6756
X5.6409Y-2.7756
X5.7087Y-3.5433
X5.7409Y-2.6756
X5.7409Y-2.7756
X5.8409Y-2.6756
X5.8409Y-2.7756
T4
X3.6252Y-2.6654
X3.7252Y-2.6654
X3.8252Y-2.6654
X3.9252Y-2.6654
X4.0866Y-2.6654
X4.1866Y-2.6654
X4.2866Y-2.6654
X4.3866Y-2.6654
X4.4866Y-2.6654
X4.5866Y-2.6654
T5
X2.6236Y-7.1567
X2.6248Y-6.1882
X2.626Y-4.2437
X2.626Y-5.2197
X2.722Y-6.9598
X2.7232Y-5.9913
X2.7244Y-4.0469
X2.7244Y-5.0228
X2.7953Y-3.2283
X2.7953Y-3.4252
X2.8205Y-7.1567
X2.8217Y-6.1882
X2.8228Y-4.2437
X2.8228Y-5.2197
X2.9921Y-3.3268
X3.189Y-3.2283
X3.189Y-3.4252
X3.3858Y-3.3268
X3.5827Y-3.2283
X3.5827Y-3.4252
X3.7795Y-3.3268
X5.9394Y-5.9689
X5.9409Y-4.0276
X5.9409Y-6.9421
X5.9421Y-4.9965
X6.0378Y-6.1657
X6.0394Y-4.2244
X6.0394Y-7.139
X6.0406Y-5.1933
X6.1362Y-5.9689
X6.1378Y-4.0276
X6.1378Y-6.9421
X6.139Y-4.9965
T6
X2.5394Y-2.5591
X2.5394Y-7.5787
X6.2205Y-2.5591
X6.2205Y-7.5787
T0
M30
