%TF.GenerationSoftware,KiCad,Pcbnew,5.1.12-84ad8e8a86~92~ubuntu21.04.1*%
%TF.CreationDate,2021-11-06T20:56:35+01:00*%
%TF.ProjectId,control,636f6e74-726f-46c2-9e6b-696361645f70,v1.0.0*%
%TF.SameCoordinates,Original*%
%TF.FileFunction,Legend,Bot*%
%TF.FilePolarity,Positive*%
%FSLAX46Y46*%
G04 Gerber Fmt 4.6, Leading zero omitted, Abs format (unit mm)*
G04 Created by KiCad (PCBNEW 5.1.12-84ad8e8a86~92~ubuntu21.04.1) date 2021-11-06 20:56:35*
%MOMM*%
%LPD*%
G01*
G04 APERTURE LIST*
%ADD10C,0.120000*%
%ADD11C,0.150000*%
G04 APERTURE END LIST*
D10*
%TO.C,RV7*%
X95840000Y-149120000D02*
X96670000Y-149120000D01*
X98290000Y-149120000D02*
X98820000Y-149120000D01*
X101190000Y-149120000D02*
X102370000Y-149120000D01*
X92630000Y-149120000D02*
X92630000Y-144400000D01*
X102370000Y-140590000D02*
X102370000Y-137530000D01*
X102380000Y-149120000D02*
X102380000Y-144400000D01*
X92630000Y-140590000D02*
X92630000Y-137530000D01*
X92630000Y-149120000D02*
X94120000Y-149120000D01*
X92630000Y-137530000D02*
X102370000Y-137530000D01*
%TO.C,RV6*%
X95840000Y-179120000D02*
X96670000Y-179120000D01*
X98290000Y-179120000D02*
X98820000Y-179120000D01*
X101190000Y-179120000D02*
X102370000Y-179120000D01*
X92630000Y-179120000D02*
X92630000Y-174400000D01*
X102370000Y-170590000D02*
X102370000Y-167530000D01*
X102380000Y-179120000D02*
X102380000Y-174400000D01*
X92630000Y-170590000D02*
X92630000Y-167530000D01*
X92630000Y-179120000D02*
X94120000Y-179120000D01*
X92630000Y-167530000D02*
X102370000Y-167530000D01*
%TO.C,RV5*%
X95840000Y-119120000D02*
X96670000Y-119120000D01*
X98290000Y-119120000D02*
X98820000Y-119120000D01*
X101190000Y-119120000D02*
X102370000Y-119120000D01*
X92630000Y-119120000D02*
X92630000Y-114400000D01*
X102370000Y-110590000D02*
X102370000Y-107530000D01*
X102380000Y-119120000D02*
X102380000Y-114400000D01*
X92630000Y-110590000D02*
X92630000Y-107530000D01*
X92630000Y-119120000D02*
X94120000Y-119120000D01*
X92630000Y-107530000D02*
X102370000Y-107530000D01*
%TO.C,RV4*%
X95840000Y-89120000D02*
X96670000Y-89120000D01*
X98290000Y-89120000D02*
X98820000Y-89120000D01*
X101190000Y-89120000D02*
X102370000Y-89120000D01*
X92630000Y-89120000D02*
X92630000Y-84400000D01*
X102370000Y-80590000D02*
X102370000Y-77530000D01*
X102380000Y-89120000D02*
X102380000Y-84400000D01*
X92630000Y-80590000D02*
X92630000Y-77530000D01*
X92630000Y-89120000D02*
X94120000Y-89120000D01*
X92630000Y-77530000D02*
X102370000Y-77530000D01*
%TO.C,RV7*%
D11*
X105092380Y-142694761D02*
X104616190Y-142361428D01*
X105092380Y-142123333D02*
X104092380Y-142123333D01*
X104092380Y-142504285D01*
X104140000Y-142599523D01*
X104187619Y-142647142D01*
X104282857Y-142694761D01*
X104425714Y-142694761D01*
X104520952Y-142647142D01*
X104568571Y-142599523D01*
X104616190Y-142504285D01*
X104616190Y-142123333D01*
X104092380Y-142980476D02*
X105092380Y-143313809D01*
X104092380Y-143647142D01*
X104092380Y-143885238D02*
X104092380Y-144551904D01*
X105092380Y-144123333D01*
X90404761Y-140404761D02*
X90452380Y-140547619D01*
X90452380Y-140785714D01*
X90404761Y-140880952D01*
X90357142Y-140928571D01*
X90261904Y-140976190D01*
X90166666Y-140976190D01*
X90071428Y-140928571D01*
X90023809Y-140880952D01*
X89976190Y-140785714D01*
X89928571Y-140595238D01*
X89880952Y-140500000D01*
X89833333Y-140452380D01*
X89738095Y-140404761D01*
X89642857Y-140404761D01*
X89547619Y-140452380D01*
X89500000Y-140500000D01*
X89452380Y-140595238D01*
X89452380Y-140833333D01*
X89500000Y-140976190D01*
X89452380Y-141404761D02*
X90261904Y-141404761D01*
X90357142Y-141452380D01*
X90404761Y-141500000D01*
X90452380Y-141595238D01*
X90452380Y-141785714D01*
X90404761Y-141880952D01*
X90357142Y-141928571D01*
X90261904Y-141976190D01*
X89452380Y-141976190D01*
X90404761Y-142404761D02*
X90452380Y-142547619D01*
X90452380Y-142785714D01*
X90404761Y-142880952D01*
X90357142Y-142928571D01*
X90261904Y-142976190D01*
X90166666Y-142976190D01*
X90071428Y-142928571D01*
X90023809Y-142880952D01*
X89976190Y-142785714D01*
X89928571Y-142595238D01*
X89880952Y-142500000D01*
X89833333Y-142452380D01*
X89738095Y-142404761D01*
X89642857Y-142404761D01*
X89547619Y-142452380D01*
X89500000Y-142500000D01*
X89452380Y-142595238D01*
X89452380Y-142833333D01*
X89500000Y-142976190D01*
X89452380Y-143261904D02*
X89452380Y-143833333D01*
X90452380Y-143547619D02*
X89452380Y-143547619D01*
X90166666Y-144119047D02*
X90166666Y-144595238D01*
X90452380Y-144023809D02*
X89452380Y-144357142D01*
X90452380Y-144690476D01*
X90452380Y-145023809D02*
X89452380Y-145023809D01*
X90452380Y-145500000D02*
X89452380Y-145500000D01*
X90452380Y-146071428D01*
X89452380Y-146071428D01*
X90452380Y-147833333D02*
X90452380Y-147261904D01*
X90452380Y-147547619D02*
X89452380Y-147547619D01*
X89595238Y-147452380D01*
X89690476Y-147357142D01*
X89738095Y-147261904D01*
X89452380Y-148452380D02*
X89452380Y-148547619D01*
X89500000Y-148642857D01*
X89547619Y-148690476D01*
X89642857Y-148738095D01*
X89833333Y-148785714D01*
X90071428Y-148785714D01*
X90261904Y-148738095D01*
X90357142Y-148690476D01*
X90404761Y-148642857D01*
X90452380Y-148547619D01*
X90452380Y-148452380D01*
X90404761Y-148357142D01*
X90357142Y-148309523D01*
X90261904Y-148261904D01*
X90071428Y-148214285D01*
X89833333Y-148214285D01*
X89642857Y-148261904D01*
X89547619Y-148309523D01*
X89500000Y-148357142D01*
X89452380Y-148452380D01*
X90452380Y-149214285D02*
X89452380Y-149214285D01*
X90071428Y-149309523D02*
X90452380Y-149595238D01*
X89785714Y-149595238D02*
X90166666Y-149214285D01*
%TO.C,RV6*%
X105092380Y-172694761D02*
X104616190Y-172361428D01*
X105092380Y-172123333D02*
X104092380Y-172123333D01*
X104092380Y-172504285D01*
X104140000Y-172599523D01*
X104187619Y-172647142D01*
X104282857Y-172694761D01*
X104425714Y-172694761D01*
X104520952Y-172647142D01*
X104568571Y-172599523D01*
X104616190Y-172504285D01*
X104616190Y-172123333D01*
X104092380Y-172980476D02*
X105092380Y-173313809D01*
X104092380Y-173647142D01*
X104092380Y-174409047D02*
X104092380Y-174218571D01*
X104140000Y-174123333D01*
X104187619Y-174075714D01*
X104330476Y-173980476D01*
X104520952Y-173932857D01*
X104901904Y-173932857D01*
X104997142Y-173980476D01*
X105044761Y-174028095D01*
X105092380Y-174123333D01*
X105092380Y-174313809D01*
X105044761Y-174409047D01*
X104997142Y-174456666D01*
X104901904Y-174504285D01*
X104663809Y-174504285D01*
X104568571Y-174456666D01*
X104520952Y-174409047D01*
X104473333Y-174313809D01*
X104473333Y-174123333D01*
X104520952Y-174028095D01*
X104568571Y-173980476D01*
X104663809Y-173932857D01*
X90452380Y-169904761D02*
X89976190Y-169571428D01*
X90452380Y-169333333D02*
X89452380Y-169333333D01*
X89452380Y-169714285D01*
X89500000Y-169809523D01*
X89547619Y-169857142D01*
X89642857Y-169904761D01*
X89785714Y-169904761D01*
X89880952Y-169857142D01*
X89928571Y-169809523D01*
X89976190Y-169714285D01*
X89976190Y-169333333D01*
X89928571Y-170333333D02*
X89928571Y-170666666D01*
X90452380Y-170809523D02*
X90452380Y-170333333D01*
X89452380Y-170333333D01*
X89452380Y-170809523D01*
X90452380Y-171714285D02*
X90452380Y-171238095D01*
X89452380Y-171238095D01*
X89928571Y-172047619D02*
X89928571Y-172380952D01*
X90452380Y-172523809D02*
X90452380Y-172047619D01*
X89452380Y-172047619D01*
X89452380Y-172523809D01*
X90166666Y-172904761D02*
X90166666Y-173380952D01*
X90452380Y-172809523D02*
X89452380Y-173142857D01*
X90452380Y-173476190D01*
X90404761Y-173761904D02*
X90452380Y-173904761D01*
X90452380Y-174142857D01*
X90404761Y-174238095D01*
X90357142Y-174285714D01*
X90261904Y-174333333D01*
X90166666Y-174333333D01*
X90071428Y-174285714D01*
X90023809Y-174238095D01*
X89976190Y-174142857D01*
X89928571Y-173952380D01*
X89880952Y-173857142D01*
X89833333Y-173809523D01*
X89738095Y-173761904D01*
X89642857Y-173761904D01*
X89547619Y-173809523D01*
X89500000Y-173857142D01*
X89452380Y-173952380D01*
X89452380Y-174190476D01*
X89500000Y-174333333D01*
X89928571Y-174761904D02*
X89928571Y-175095238D01*
X90452380Y-175238095D02*
X90452380Y-174761904D01*
X89452380Y-174761904D01*
X89452380Y-175238095D01*
X90452380Y-176952380D02*
X90452380Y-176380952D01*
X90452380Y-176666666D02*
X89452380Y-176666666D01*
X89595238Y-176571428D01*
X89690476Y-176476190D01*
X89738095Y-176380952D01*
X89452380Y-177571428D02*
X89452380Y-177666666D01*
X89500000Y-177761904D01*
X89547619Y-177809523D01*
X89642857Y-177857142D01*
X89833333Y-177904761D01*
X90071428Y-177904761D01*
X90261904Y-177857142D01*
X90357142Y-177809523D01*
X90404761Y-177761904D01*
X90452380Y-177666666D01*
X90452380Y-177571428D01*
X90404761Y-177476190D01*
X90357142Y-177428571D01*
X90261904Y-177380952D01*
X90071428Y-177333333D01*
X89833333Y-177333333D01*
X89642857Y-177380952D01*
X89547619Y-177428571D01*
X89500000Y-177476190D01*
X89452380Y-177571428D01*
X90452380Y-178333333D02*
X89452380Y-178333333D01*
X90071428Y-178428571D02*
X90452380Y-178714285D01*
X89785714Y-178714285D02*
X90166666Y-178333333D01*
%TO.C,RV5*%
X105092380Y-112694761D02*
X104616190Y-112361428D01*
X105092380Y-112123333D02*
X104092380Y-112123333D01*
X104092380Y-112504285D01*
X104140000Y-112599523D01*
X104187619Y-112647142D01*
X104282857Y-112694761D01*
X104425714Y-112694761D01*
X104520952Y-112647142D01*
X104568571Y-112599523D01*
X104616190Y-112504285D01*
X104616190Y-112123333D01*
X104092380Y-112980476D02*
X105092380Y-113313809D01*
X104092380Y-113647142D01*
X104092380Y-114456666D02*
X104092380Y-113980476D01*
X104568571Y-113932857D01*
X104520952Y-113980476D01*
X104473333Y-114075714D01*
X104473333Y-114313809D01*
X104520952Y-114409047D01*
X104568571Y-114456666D01*
X104663809Y-114504285D01*
X104901904Y-114504285D01*
X104997142Y-114456666D01*
X105044761Y-114409047D01*
X105092380Y-114313809D01*
X105092380Y-114075714D01*
X105044761Y-113980476D01*
X104997142Y-113932857D01*
X90592380Y-111190476D02*
X89592380Y-111190476D01*
X89592380Y-111428571D01*
X89640000Y-111571428D01*
X89735238Y-111666666D01*
X89830476Y-111714285D01*
X90020952Y-111761904D01*
X90163809Y-111761904D01*
X90354285Y-111714285D01*
X90449523Y-111666666D01*
X90544761Y-111571428D01*
X90592380Y-111428571D01*
X90592380Y-111190476D01*
X90068571Y-112190476D02*
X90068571Y-112523809D01*
X90592380Y-112666666D02*
X90592380Y-112190476D01*
X89592380Y-112190476D01*
X89592380Y-112666666D01*
X90497142Y-113666666D02*
X90544761Y-113619047D01*
X90592380Y-113476190D01*
X90592380Y-113380952D01*
X90544761Y-113238095D01*
X90449523Y-113142857D01*
X90354285Y-113095238D01*
X90163809Y-113047619D01*
X90020952Y-113047619D01*
X89830476Y-113095238D01*
X89735238Y-113142857D01*
X89640000Y-113238095D01*
X89592380Y-113380952D01*
X89592380Y-113476190D01*
X89640000Y-113619047D01*
X89687619Y-113666666D01*
X90306666Y-114047619D02*
X90306666Y-114523809D01*
X90592380Y-113952380D02*
X89592380Y-114285714D01*
X90592380Y-114619047D01*
X90116190Y-115142857D02*
X90592380Y-115142857D01*
X89592380Y-114809523D02*
X90116190Y-115142857D01*
X89592380Y-115476190D01*
X90592380Y-117095238D02*
X90592380Y-116523809D01*
X90592380Y-116809523D02*
X89592380Y-116809523D01*
X89735238Y-116714285D01*
X89830476Y-116619047D01*
X89878095Y-116523809D01*
X89592380Y-117714285D02*
X89592380Y-117809523D01*
X89640000Y-117904761D01*
X89687619Y-117952380D01*
X89782857Y-118000000D01*
X89973333Y-118047619D01*
X90211428Y-118047619D01*
X90401904Y-118000000D01*
X90497142Y-117952380D01*
X90544761Y-117904761D01*
X90592380Y-117809523D01*
X90592380Y-117714285D01*
X90544761Y-117619047D01*
X90497142Y-117571428D01*
X90401904Y-117523809D01*
X90211428Y-117476190D01*
X89973333Y-117476190D01*
X89782857Y-117523809D01*
X89687619Y-117571428D01*
X89640000Y-117619047D01*
X89592380Y-117714285D01*
X90592380Y-118476190D02*
X89592380Y-118476190D01*
X90211428Y-118571428D02*
X90592380Y-118857142D01*
X89925714Y-118857142D02*
X90306666Y-118476190D01*
%TO.C,RV4*%
X105092380Y-82694761D02*
X104616190Y-82361428D01*
X105092380Y-82123333D02*
X104092380Y-82123333D01*
X104092380Y-82504285D01*
X104140000Y-82599523D01*
X104187619Y-82647142D01*
X104282857Y-82694761D01*
X104425714Y-82694761D01*
X104520952Y-82647142D01*
X104568571Y-82599523D01*
X104616190Y-82504285D01*
X104616190Y-82123333D01*
X104092380Y-82980476D02*
X105092380Y-83313809D01*
X104092380Y-83647142D01*
X104425714Y-84409047D02*
X105092380Y-84409047D01*
X104044761Y-84170952D02*
X104759047Y-83932857D01*
X104759047Y-84551904D01*
X90166666Y-79833333D02*
X90166666Y-80309523D01*
X90452380Y-79738095D02*
X89452380Y-80071428D01*
X90452380Y-80404761D01*
X89452380Y-80595238D02*
X89452380Y-81166666D01*
X90452380Y-80880952D02*
X89452380Y-80880952D01*
X89452380Y-81357142D02*
X89452380Y-81928571D01*
X90452380Y-81642857D02*
X89452380Y-81642857D01*
X90166666Y-82214285D02*
X90166666Y-82690476D01*
X90452380Y-82119047D02*
X89452380Y-82452380D01*
X90452380Y-82785714D01*
X90357142Y-83690476D02*
X90404761Y-83642857D01*
X90452380Y-83500000D01*
X90452380Y-83404761D01*
X90404761Y-83261904D01*
X90309523Y-83166666D01*
X90214285Y-83119047D01*
X90023809Y-83071428D01*
X89880952Y-83071428D01*
X89690476Y-83119047D01*
X89595238Y-83166666D01*
X89500000Y-83261904D01*
X89452380Y-83404761D01*
X89452380Y-83500000D01*
X89500000Y-83642857D01*
X89547619Y-83690476D01*
X90452380Y-84119047D02*
X89452380Y-84119047D01*
X90452380Y-84690476D02*
X89880952Y-84261904D01*
X89452380Y-84690476D02*
X90023809Y-84119047D01*
X90452380Y-86404761D02*
X90452380Y-85833333D01*
X90452380Y-86119047D02*
X89452380Y-86119047D01*
X89595238Y-86023809D01*
X89690476Y-85928571D01*
X89738095Y-85833333D01*
X89452380Y-87023809D02*
X89452380Y-87119047D01*
X89500000Y-87214285D01*
X89547619Y-87261904D01*
X89642857Y-87309523D01*
X89833333Y-87357142D01*
X90071428Y-87357142D01*
X90261904Y-87309523D01*
X90357142Y-87261904D01*
X90404761Y-87214285D01*
X90452380Y-87119047D01*
X90452380Y-87023809D01*
X90404761Y-86928571D01*
X90357142Y-86880952D01*
X90261904Y-86833333D01*
X90071428Y-86785714D01*
X89833333Y-86785714D01*
X89642857Y-86833333D01*
X89547619Y-86880952D01*
X89500000Y-86928571D01*
X89452380Y-87023809D01*
X90452380Y-87785714D02*
X89452380Y-87785714D01*
X90071428Y-87880952D02*
X90452380Y-88166666D01*
X89785714Y-88166666D02*
X90166666Y-87785714D01*
%TD*%
M02*
