M48
; DRILL file {KiCad 5.1.12-84ad8e8a86~92~ubuntu21.04.1} date Sa 06 Nov 2021 20:56:33 CET
; FORMAT={-:-/ absolute / inch / decimal}
; #@! TF.CreationDate,2021-11-06T20:56:33+01:00
; #@! TF.GenerationSoftware,Kicad,Pcbnew,5.1.12-84ad8e8a86~92~ubuntu21.04.1
; #@! TF.FileFunction,Plated,1,2,PTH
FMAT,2
INCH
T1C0.0315
T2C0.0394
T3C0.0433
T4C0.0469
%
G90
G05
T1
X3.7339Y-3.7008
X3.7339Y-4.9213
X3.7402Y-6.0567
X3.7402Y-6.4567
X3.9764Y-6.063
X3.9764Y-6.463
X4.1339Y-3.7008
X4.1339Y-4.9213
X4.2126Y-6.0567
X4.2126Y-6.4567
X4.2913Y-6.6535
X4.2913Y-7.0535
T2
X3.7402Y-3.5433
X3.7402Y-4.7244
X3.7402Y-5.9055
X3.7402Y-7.0866
X3.8386Y-3.5433
X3.8386Y-4.7244
X3.8386Y-5.9055
X3.8386Y-7.0866
X3.937Y-3.5433
X3.937Y-4.7244
X3.937Y-5.9055
X3.937Y-7.0866
T4
X4.3701Y-4.8819
X4.3701Y-4.9819
X4.3701Y-5.0819
X4.3701Y-5.1819
X4.3701Y-5.2819
X4.3701Y-5.3819
T3
G00X3.6496Y-3.2343
M15
G01X3.6496Y-3.2618
M16
G05
G00X3.6496Y-4.4154
M15
G01X3.6496Y-4.4429
M16
G05
G00X3.6496Y-5.5965
M15
G01X3.6496Y-5.624
M16
G05
G00X3.6496Y-6.7776
M15
G01X3.6496Y-6.8051
M16
G05
G00X4.0276Y-3.2343
M15
G01X4.0276Y-3.2618
M16
G05
G00X4.0276Y-4.4154
M15
G01X4.0276Y-4.4429
M16
G05
G00X4.0276Y-5.5965
M15
G01X4.0276Y-5.624
M16
G05
G00X4.0276Y-6.7776
M15
G01X4.0276Y-6.8051
M16
G05
T0
M30
