%TF.GenerationSoftware,KiCad,Pcbnew,5.1.12-84ad8e8a86~92~ubuntu21.04.1*%
%TF.CreationDate,2021-11-06T20:56:35+01:00*%
%TF.ProjectId,control,636f6e74-726f-46c2-9e6b-696361645f70,v1.0.0*%
%TF.SameCoordinates,Original*%
%TF.FileFunction,Soldermask,Bot*%
%TF.FilePolarity,Negative*%
%FSLAX46Y46*%
G04 Gerber Fmt 4.6, Leading zero omitted, Abs format (unit mm)*
G04 Created by KiCad (PCBNEW 5.1.12-84ad8e8a86~92~ubuntu21.04.1) date 2021-11-06 20:56:35*
%MOMM*%
%LPD*%
G01*
G04 APERTURE LIST*
%ADD10O,2.720000X3.240000*%
%ADD11C,1.800000*%
%ADD12R,1.800000X1.800000*%
%ADD13O,1.600000X1.600000*%
%ADD14C,1.600000*%
%ADD15O,2.190000X1.740000*%
G04 APERTURE END LIST*
D10*
%TO.C,RV7*%
X102300000Y-142500000D03*
X92700000Y-142500000D03*
D11*
X95000000Y-150000000D03*
X97500000Y-150000000D03*
D12*
X100000000Y-150000000D03*
%TD*%
D10*
%TO.C,RV6*%
X102300000Y-172500000D03*
X92700000Y-172500000D03*
D11*
X95000000Y-180000000D03*
X97500000Y-180000000D03*
D12*
X100000000Y-180000000D03*
%TD*%
D10*
%TO.C,RV5*%
X102300000Y-112500000D03*
X92700000Y-112500000D03*
D11*
X95000000Y-120000000D03*
X97500000Y-120000000D03*
D12*
X100000000Y-120000000D03*
%TD*%
D10*
%TO.C,RV4*%
X102300000Y-82500000D03*
X92700000Y-82500000D03*
D11*
X95000000Y-90000000D03*
X97500000Y-90000000D03*
D12*
X100000000Y-90000000D03*
%TD*%
D13*
%TO.C,R18*%
X95000000Y-153840000D03*
D14*
X95000000Y-164000000D03*
%TD*%
D13*
%TO.C,R17*%
X109000000Y-179160000D03*
D14*
X109000000Y-169000000D03*
%TD*%
D13*
%TO.C,R16*%
X94840000Y-125000000D03*
D14*
X105000000Y-125000000D03*
%TD*%
D13*
%TO.C,R15*%
X94840000Y-94000000D03*
D14*
X105000000Y-94000000D03*
%TD*%
D13*
%TO.C,R2*%
X101000000Y-164160000D03*
D14*
X101000000Y-154000000D03*
%TD*%
D13*
%TO.C,R1*%
X107000000Y-153840000D03*
D14*
X107000000Y-164000000D03*
%TD*%
D15*
%TO.C,J1*%
X111000000Y-136700000D03*
X111000000Y-134160000D03*
X111000000Y-131620000D03*
X111000000Y-129080000D03*
X111000000Y-126540000D03*
G36*
G01*
X110154999Y-123130000D02*
X111845001Y-123130000D01*
G75*
G02*
X112095000Y-123379999I0J-249999D01*
G01*
X112095000Y-124620001D01*
G75*
G02*
X111845001Y-124870000I-249999J0D01*
G01*
X110154999Y-124870000D01*
G75*
G02*
X109905000Y-124620001I0J249999D01*
G01*
X109905000Y-123379999D01*
G75*
G02*
X110154999Y-123130000I249999J0D01*
G01*
G37*
%TD*%
M02*
