%TF.GenerationSoftware,KiCad,Pcbnew,5.1.12-84ad8e8a86~92~ubuntu21.04.1*%
%TF.CreationDate,2021-11-06T20:56:35+01:00*%
%TF.ProjectId,control,636f6e74-726f-46c2-9e6b-696361645f70,v1.0.0*%
%TF.SameCoordinates,Original*%
%TF.FileFunction,Copper,L1,Top*%
%TF.FilePolarity,Positive*%
%FSLAX46Y46*%
G04 Gerber Fmt 4.6, Leading zero omitted, Abs format (unit mm)*
G04 Created by KiCad (PCBNEW 5.1.12-84ad8e8a86~92~ubuntu21.04.1) date 2021-11-06 20:56:35*
%MOMM*%
%LPD*%
G01*
G04 APERTURE LIST*
%TA.AperFunction,ComponentPad*%
%ADD10O,2.720000X3.240000*%
%TD*%
%TA.AperFunction,ComponentPad*%
%ADD11C,1.800000*%
%TD*%
%TA.AperFunction,ComponentPad*%
%ADD12R,1.800000X1.800000*%
%TD*%
%TA.AperFunction,ComponentPad*%
%ADD13O,1.600000X1.600000*%
%TD*%
%TA.AperFunction,ComponentPad*%
%ADD14C,1.600000*%
%TD*%
%TA.AperFunction,ComponentPad*%
%ADD15O,2.190000X1.740000*%
%TD*%
%TA.AperFunction,Conductor*%
%ADD16C,0.508000*%
%TD*%
%TA.AperFunction,Conductor*%
%ADD17C,0.254000*%
%TD*%
%TA.AperFunction,Conductor*%
%ADD18C,0.100000*%
%TD*%
G04 APERTURE END LIST*
D10*
%TO.P,RV7,*%
%TO.N,*%
X102300000Y-142500000D03*
X92700000Y-142500000D03*
D11*
%TO.P,RV7,3*%
%TO.N,Net-(R18-Pad2)*%
X95000000Y-150000000D03*
%TO.P,RV7,2*%
%TO.N,S_CONTROL*%
X97500000Y-150000000D03*
D12*
%TO.P,RV7,1*%
%TO.N,GND*%
X100000000Y-150000000D03*
%TD*%
D10*
%TO.P,RV6,*%
%TO.N,*%
X102300000Y-172500000D03*
X92700000Y-172500000D03*
D11*
%TO.P,RV6,3*%
%TO.N,Net-(R17-Pad2)*%
X95000000Y-180000000D03*
%TO.P,RV6,2*%
%TO.N,R_CONTROL*%
X97500000Y-180000000D03*
D12*
%TO.P,RV6,1*%
%TO.N,GND*%
X100000000Y-180000000D03*
%TD*%
D10*
%TO.P,RV5,*%
%TO.N,*%
X102300000Y-112500000D03*
X92700000Y-112500000D03*
D11*
%TO.P,RV5,3*%
%TO.N,Net-(R16-Pad2)*%
X95000000Y-120000000D03*
%TO.P,RV5,2*%
%TO.N,D_CONTROL*%
X97500000Y-120000000D03*
D12*
%TO.P,RV5,1*%
%TO.N,GND*%
X100000000Y-120000000D03*
%TD*%
D10*
%TO.P,RV4,*%
%TO.N,*%
X102300000Y-82500000D03*
X92700000Y-82500000D03*
D11*
%TO.P,RV4,3*%
%TO.N,Net-(R15-Pad2)*%
X95000000Y-90000000D03*
%TO.P,RV4,2*%
%TO.N,A_CONTROL*%
X97500000Y-90000000D03*
D12*
%TO.P,RV4,1*%
%TO.N,GND*%
X100000000Y-90000000D03*
%TD*%
D13*
%TO.P,R18,2*%
%TO.N,Net-(R18-Pad2)*%
X95000000Y-153840000D03*
D14*
%TO.P,R18,1*%
%TO.N,Net-(R18-Pad1)*%
X95000000Y-164000000D03*
%TD*%
D13*
%TO.P,R17,2*%
%TO.N,Net-(R17-Pad2)*%
X109000000Y-179160000D03*
D14*
%TO.P,R17,1*%
%TO.N,+12V*%
X109000000Y-169000000D03*
%TD*%
D13*
%TO.P,R16,2*%
%TO.N,Net-(R16-Pad2)*%
X94840000Y-125000000D03*
D14*
%TO.P,R16,1*%
%TO.N,+12V*%
X105000000Y-125000000D03*
%TD*%
D13*
%TO.P,R15,2*%
%TO.N,Net-(R15-Pad2)*%
X94840000Y-94000000D03*
D14*
%TO.P,R15,1*%
%TO.N,+12V*%
X105000000Y-94000000D03*
%TD*%
D13*
%TO.P,R2,2*%
%TO.N,Net-(R18-Pad1)*%
X101000000Y-164160000D03*
D14*
%TO.P,R2,1*%
%TO.N,Net-(R1-Pad2)*%
X101000000Y-154000000D03*
%TD*%
D13*
%TO.P,R1,2*%
%TO.N,Net-(R1-Pad2)*%
X107000000Y-153840000D03*
D14*
%TO.P,R1,1*%
%TO.N,+12V*%
X107000000Y-164000000D03*
%TD*%
D15*
%TO.P,J1,6*%
%TO.N,+12V*%
X111000000Y-136700000D03*
%TO.P,J1,5*%
%TO.N,R_CONTROL*%
X111000000Y-134160000D03*
%TO.P,J1,4*%
%TO.N,S_CONTROL*%
X111000000Y-131620000D03*
%TO.P,J1,3*%
%TO.N,D_CONTROL*%
X111000000Y-129080000D03*
%TO.P,J1,2*%
%TO.N,A_CONTROL*%
X111000000Y-126540000D03*
%TO.P,J1,1*%
%TO.N,GND*%
%TA.AperFunction,ComponentPad*%
G36*
G01*
X110154999Y-123130000D02*
X111845001Y-123130000D01*
G75*
G02*
X112095000Y-123379999I0J-249999D01*
G01*
X112095000Y-124620001D01*
G75*
G02*
X111845001Y-124870000I-249999J0D01*
G01*
X110154999Y-124870000D01*
G75*
G02*
X109905000Y-124620001I0J249999D01*
G01*
X109905000Y-123379999D01*
G75*
G02*
X110154999Y-123130000I249999J0D01*
G01*
G37*
%TD.AperFunction*%
%TD*%
D16*
%TO.N,R_CONTROL*%
X97500000Y-174474603D02*
X97500000Y-180000000D01*
X104114010Y-167860593D02*
X97500000Y-174474603D01*
X104114010Y-141045990D02*
X104114010Y-167860593D01*
X111000000Y-134160000D02*
X104114010Y-141045990D01*
%TO.N,S_CONTROL*%
X110354603Y-131620000D02*
X111000000Y-131620000D01*
X97500000Y-144474603D02*
X110354603Y-131620000D01*
X97500000Y-150000000D02*
X97500000Y-144474603D01*
%TO.N,D_CONTROL*%
X106580000Y-129080000D02*
X111000000Y-129080000D01*
X97500000Y-120000000D02*
X106580000Y-129080000D01*
%TO.N,A_CONTROL*%
X112549010Y-124990990D02*
X111000000Y-126540000D01*
X112549010Y-105049010D02*
X112549010Y-124990990D01*
X97500000Y-90000000D02*
X112549010Y-105049010D01*
%TD*%
D17*
%TO.N,GND*%
X115340001Y-181340000D02*
X101360364Y-181340000D01*
X101430537Y-181254494D01*
X101489502Y-181144180D01*
X101525812Y-181024482D01*
X101538072Y-180900000D01*
X101535000Y-180285750D01*
X101376250Y-180127000D01*
X100127000Y-180127000D01*
X100127000Y-180147000D01*
X99873000Y-180147000D01*
X99873000Y-180127000D01*
X99853000Y-180127000D01*
X99853000Y-179873000D01*
X99873000Y-179873000D01*
X99873000Y-178623750D01*
X100127000Y-178623750D01*
X100127000Y-179873000D01*
X101376250Y-179873000D01*
X101535000Y-179714250D01*
X101538072Y-179100000D01*
X101530062Y-179018665D01*
X107565000Y-179018665D01*
X107565000Y-179301335D01*
X107620147Y-179578574D01*
X107728320Y-179839727D01*
X107885363Y-180074759D01*
X108085241Y-180274637D01*
X108320273Y-180431680D01*
X108581426Y-180539853D01*
X108858665Y-180595000D01*
X109141335Y-180595000D01*
X109418574Y-180539853D01*
X109679727Y-180431680D01*
X109914759Y-180274637D01*
X110114637Y-180074759D01*
X110271680Y-179839727D01*
X110379853Y-179578574D01*
X110435000Y-179301335D01*
X110435000Y-179018665D01*
X110379853Y-178741426D01*
X110271680Y-178480273D01*
X110114637Y-178245241D01*
X109914759Y-178045363D01*
X109679727Y-177888320D01*
X109418574Y-177780147D01*
X109141335Y-177725000D01*
X108858665Y-177725000D01*
X108581426Y-177780147D01*
X108320273Y-177888320D01*
X108085241Y-178045363D01*
X107885363Y-178245241D01*
X107728320Y-178480273D01*
X107620147Y-178741426D01*
X107565000Y-179018665D01*
X101530062Y-179018665D01*
X101525812Y-178975518D01*
X101489502Y-178855820D01*
X101430537Y-178745506D01*
X101351185Y-178648815D01*
X101254494Y-178569463D01*
X101144180Y-178510498D01*
X101024482Y-178474188D01*
X100900000Y-178461928D01*
X100285750Y-178465000D01*
X100127000Y-178623750D01*
X99873000Y-178623750D01*
X99714250Y-178465000D01*
X99100000Y-178461928D01*
X98975518Y-178474188D01*
X98855820Y-178510498D01*
X98745506Y-178569463D01*
X98648815Y-178648815D01*
X98569463Y-178745506D01*
X98516120Y-178845303D01*
X98478505Y-178807688D01*
X98389000Y-178747883D01*
X98389000Y-174842838D01*
X100311172Y-172920666D01*
X100333867Y-173151088D01*
X100447943Y-173527147D01*
X100633193Y-173873725D01*
X100882498Y-174177503D01*
X101186276Y-174426807D01*
X101532854Y-174612057D01*
X101908913Y-174726133D01*
X102300000Y-174764652D01*
X102691088Y-174726133D01*
X103067147Y-174612057D01*
X103413725Y-174426807D01*
X103717503Y-174177503D01*
X103966807Y-173873725D01*
X104152057Y-173527147D01*
X104266133Y-173151087D01*
X104295000Y-172857997D01*
X104295000Y-172142002D01*
X104266133Y-171848912D01*
X104152057Y-171472853D01*
X103966807Y-171126275D01*
X103717503Y-170822497D01*
X103413725Y-170573193D01*
X103067146Y-170387943D01*
X102895856Y-170335983D01*
X104373174Y-168858665D01*
X107565000Y-168858665D01*
X107565000Y-169141335D01*
X107620147Y-169418574D01*
X107728320Y-169679727D01*
X107885363Y-169914759D01*
X108085241Y-170114637D01*
X108320273Y-170271680D01*
X108581426Y-170379853D01*
X108858665Y-170435000D01*
X109141335Y-170435000D01*
X109418574Y-170379853D01*
X109679727Y-170271680D01*
X109914759Y-170114637D01*
X110114637Y-169914759D01*
X110271680Y-169679727D01*
X110379853Y-169418574D01*
X110435000Y-169141335D01*
X110435000Y-168858665D01*
X110379853Y-168581426D01*
X110271680Y-168320273D01*
X110114637Y-168085241D01*
X109914759Y-167885363D01*
X109679727Y-167728320D01*
X109418574Y-167620147D01*
X109141335Y-167565000D01*
X108858665Y-167565000D01*
X108581426Y-167620147D01*
X108320273Y-167728320D01*
X108085241Y-167885363D01*
X107885363Y-168085241D01*
X107728320Y-168320273D01*
X107620147Y-168581426D01*
X107565000Y-168858665D01*
X104373174Y-168858665D01*
X104711752Y-168520087D01*
X104745669Y-168492252D01*
X104856763Y-168356884D01*
X104939313Y-168202444D01*
X104990146Y-168034867D01*
X105003010Y-167904260D01*
X105003010Y-167904253D01*
X105007310Y-167860593D01*
X105003010Y-167816933D01*
X105003010Y-163858665D01*
X105565000Y-163858665D01*
X105565000Y-164141335D01*
X105620147Y-164418574D01*
X105728320Y-164679727D01*
X105885363Y-164914759D01*
X106085241Y-165114637D01*
X106320273Y-165271680D01*
X106581426Y-165379853D01*
X106858665Y-165435000D01*
X107141335Y-165435000D01*
X107418574Y-165379853D01*
X107679727Y-165271680D01*
X107914759Y-165114637D01*
X108114637Y-164914759D01*
X108271680Y-164679727D01*
X108379853Y-164418574D01*
X108435000Y-164141335D01*
X108435000Y-163858665D01*
X108379853Y-163581426D01*
X108271680Y-163320273D01*
X108114637Y-163085241D01*
X107914759Y-162885363D01*
X107679727Y-162728320D01*
X107418574Y-162620147D01*
X107141335Y-162565000D01*
X106858665Y-162565000D01*
X106581426Y-162620147D01*
X106320273Y-162728320D01*
X106085241Y-162885363D01*
X105885363Y-163085241D01*
X105728320Y-163320273D01*
X105620147Y-163581426D01*
X105565000Y-163858665D01*
X105003010Y-163858665D01*
X105003010Y-153698665D01*
X105565000Y-153698665D01*
X105565000Y-153981335D01*
X105620147Y-154258574D01*
X105728320Y-154519727D01*
X105885363Y-154754759D01*
X106085241Y-154954637D01*
X106320273Y-155111680D01*
X106581426Y-155219853D01*
X106858665Y-155275000D01*
X107141335Y-155275000D01*
X107418574Y-155219853D01*
X107679727Y-155111680D01*
X107914759Y-154954637D01*
X108114637Y-154754759D01*
X108271680Y-154519727D01*
X108379853Y-154258574D01*
X108435000Y-153981335D01*
X108435000Y-153698665D01*
X108379853Y-153421426D01*
X108271680Y-153160273D01*
X108114637Y-152925241D01*
X107914759Y-152725363D01*
X107679727Y-152568320D01*
X107418574Y-152460147D01*
X107141335Y-152405000D01*
X106858665Y-152405000D01*
X106581426Y-152460147D01*
X106320273Y-152568320D01*
X106085241Y-152725363D01*
X105885363Y-152925241D01*
X105728320Y-153160273D01*
X105620147Y-153421426D01*
X105565000Y-153698665D01*
X105003010Y-153698665D01*
X105003010Y-141414225D01*
X109322132Y-137095103D01*
X109377834Y-137278725D01*
X109517583Y-137540179D01*
X109705655Y-137769345D01*
X109934821Y-137957417D01*
X110196275Y-138097166D01*
X110479968Y-138183224D01*
X110701064Y-138205000D01*
X111298936Y-138205000D01*
X111520032Y-138183224D01*
X111803725Y-138097166D01*
X112065179Y-137957417D01*
X112294345Y-137769345D01*
X112482417Y-137540179D01*
X112622166Y-137278725D01*
X112708224Y-136995032D01*
X112737282Y-136700000D01*
X112708224Y-136404968D01*
X112622166Y-136121275D01*
X112482417Y-135859821D01*
X112294345Y-135630655D01*
X112065179Y-135442583D01*
X112041638Y-135430000D01*
X112065179Y-135417417D01*
X112294345Y-135229345D01*
X112482417Y-135000179D01*
X112622166Y-134738725D01*
X112708224Y-134455032D01*
X112737282Y-134160000D01*
X112708224Y-133864968D01*
X112622166Y-133581275D01*
X112482417Y-133319821D01*
X112294345Y-133090655D01*
X112065179Y-132902583D01*
X112041638Y-132890000D01*
X112065179Y-132877417D01*
X112294345Y-132689345D01*
X112482417Y-132460179D01*
X112622166Y-132198725D01*
X112708224Y-131915032D01*
X112737282Y-131620000D01*
X112708224Y-131324968D01*
X112622166Y-131041275D01*
X112482417Y-130779821D01*
X112294345Y-130550655D01*
X112065179Y-130362583D01*
X112041638Y-130350000D01*
X112065179Y-130337417D01*
X112294345Y-130149345D01*
X112482417Y-129920179D01*
X112622166Y-129658725D01*
X112708224Y-129375032D01*
X112737282Y-129080000D01*
X112708224Y-128784968D01*
X112622166Y-128501275D01*
X112482417Y-128239821D01*
X112294345Y-128010655D01*
X112065179Y-127822583D01*
X112041638Y-127810000D01*
X112065179Y-127797417D01*
X112294345Y-127609345D01*
X112482417Y-127380179D01*
X112622166Y-127118725D01*
X112708224Y-126835032D01*
X112737282Y-126540000D01*
X112708224Y-126244968D01*
X112671926Y-126125310D01*
X113146752Y-125650484D01*
X113180669Y-125622649D01*
X113291763Y-125487281D01*
X113374313Y-125332841D01*
X113425146Y-125165264D01*
X113438010Y-125034657D01*
X113438010Y-125034650D01*
X113442310Y-124990990D01*
X113438010Y-124947330D01*
X113438010Y-105092669D01*
X113442310Y-105049009D01*
X113438010Y-105005349D01*
X113438010Y-105005343D01*
X113425146Y-104874736D01*
X113374313Y-104707159D01*
X113291763Y-104552719D01*
X113180669Y-104417351D01*
X113146753Y-104389517D01*
X102615901Y-93858665D01*
X103565000Y-93858665D01*
X103565000Y-94141335D01*
X103620147Y-94418574D01*
X103728320Y-94679727D01*
X103885363Y-94914759D01*
X104085241Y-95114637D01*
X104320273Y-95271680D01*
X104581426Y-95379853D01*
X104858665Y-95435000D01*
X105141335Y-95435000D01*
X105418574Y-95379853D01*
X105679727Y-95271680D01*
X105914759Y-95114637D01*
X106114637Y-94914759D01*
X106271680Y-94679727D01*
X106379853Y-94418574D01*
X106435000Y-94141335D01*
X106435000Y-93858665D01*
X106379853Y-93581426D01*
X106271680Y-93320273D01*
X106114637Y-93085241D01*
X105914759Y-92885363D01*
X105679727Y-92728320D01*
X105418574Y-92620147D01*
X105141335Y-92565000D01*
X104858665Y-92565000D01*
X104581426Y-92620147D01*
X104320273Y-92728320D01*
X104085241Y-92885363D01*
X103885363Y-93085241D01*
X103728320Y-93320273D01*
X103620147Y-93581426D01*
X103565000Y-93858665D01*
X102615901Y-93858665D01*
X100292268Y-91535033D01*
X100900000Y-91538072D01*
X101024482Y-91525812D01*
X101144180Y-91489502D01*
X101254494Y-91430537D01*
X101351185Y-91351185D01*
X101430537Y-91254494D01*
X101489502Y-91144180D01*
X101525812Y-91024482D01*
X101538072Y-90900000D01*
X101535000Y-90285750D01*
X101376250Y-90127000D01*
X100127000Y-90127000D01*
X100127000Y-90147000D01*
X99873000Y-90147000D01*
X99873000Y-90127000D01*
X99853000Y-90127000D01*
X99853000Y-89873000D01*
X99873000Y-89873000D01*
X99873000Y-88623750D01*
X100127000Y-88623750D01*
X100127000Y-89873000D01*
X101376250Y-89873000D01*
X101535000Y-89714250D01*
X101538072Y-89100000D01*
X101525812Y-88975518D01*
X101489502Y-88855820D01*
X101430537Y-88745506D01*
X101351185Y-88648815D01*
X101254494Y-88569463D01*
X101144180Y-88510498D01*
X101024482Y-88474188D01*
X100900000Y-88461928D01*
X100285750Y-88465000D01*
X100127000Y-88623750D01*
X99873000Y-88623750D01*
X99714250Y-88465000D01*
X99100000Y-88461928D01*
X98975518Y-88474188D01*
X98855820Y-88510498D01*
X98745506Y-88569463D01*
X98648815Y-88648815D01*
X98569463Y-88745506D01*
X98516120Y-88845303D01*
X98478505Y-88807688D01*
X98227095Y-88639701D01*
X97947743Y-88523989D01*
X97651184Y-88465000D01*
X97348816Y-88465000D01*
X97052257Y-88523989D01*
X96772905Y-88639701D01*
X96521495Y-88807688D01*
X96307688Y-89021495D01*
X96250000Y-89107831D01*
X96192312Y-89021495D01*
X95978505Y-88807688D01*
X95727095Y-88639701D01*
X95447743Y-88523989D01*
X95151184Y-88465000D01*
X94848816Y-88465000D01*
X94552257Y-88523989D01*
X94272905Y-88639701D01*
X94021495Y-88807688D01*
X93807688Y-89021495D01*
X93639701Y-89272905D01*
X93523989Y-89552257D01*
X93465000Y-89848816D01*
X93465000Y-90151184D01*
X93523989Y-90447743D01*
X93639701Y-90727095D01*
X93807688Y-90978505D01*
X94021495Y-91192312D01*
X94272905Y-91360299D01*
X94552257Y-91476011D01*
X94848816Y-91535000D01*
X95151184Y-91535000D01*
X95447743Y-91476011D01*
X95727095Y-91360299D01*
X95978505Y-91192312D01*
X96192312Y-90978505D01*
X96250000Y-90892169D01*
X96307688Y-90978505D01*
X96521495Y-91192312D01*
X96772905Y-91360299D01*
X97052257Y-91476011D01*
X97348816Y-91535000D01*
X97651184Y-91535000D01*
X97756764Y-91513999D01*
X111660010Y-105417246D01*
X111660011Y-122493579D01*
X111285750Y-122495000D01*
X111127000Y-122653750D01*
X111127000Y-123873000D01*
X111147000Y-123873000D01*
X111147000Y-124127000D01*
X111127000Y-124127000D01*
X111127000Y-124147000D01*
X110873000Y-124147000D01*
X110873000Y-124127000D01*
X109428750Y-124127000D01*
X109270000Y-124285750D01*
X109266928Y-124870000D01*
X109279188Y-124994482D01*
X109315498Y-125114180D01*
X109374463Y-125224494D01*
X109453815Y-125321185D01*
X109550506Y-125400537D01*
X109660820Y-125459502D01*
X109704047Y-125472615D01*
X109517583Y-125699821D01*
X109377834Y-125961275D01*
X109291776Y-126244968D01*
X109262718Y-126540000D01*
X109291776Y-126835032D01*
X109377834Y-127118725D01*
X109517583Y-127380179D01*
X109705655Y-127609345D01*
X109934821Y-127797417D01*
X109958362Y-127810000D01*
X109934821Y-127822583D01*
X109705655Y-128010655D01*
X109557649Y-128191000D01*
X106948236Y-128191000D01*
X105183791Y-126426555D01*
X105418574Y-126379853D01*
X105679727Y-126271680D01*
X105914759Y-126114637D01*
X106114637Y-125914759D01*
X106271680Y-125679727D01*
X106379853Y-125418574D01*
X106435000Y-125141335D01*
X106435000Y-124858665D01*
X106379853Y-124581426D01*
X106271680Y-124320273D01*
X106114637Y-124085241D01*
X105914759Y-123885363D01*
X105679727Y-123728320D01*
X105418574Y-123620147D01*
X105141335Y-123565000D01*
X104858665Y-123565000D01*
X104581426Y-123620147D01*
X104320273Y-123728320D01*
X104085241Y-123885363D01*
X103885363Y-124085241D01*
X103728320Y-124320273D01*
X103620147Y-124581426D01*
X103573445Y-124816209D01*
X101887236Y-123130000D01*
X109266928Y-123130000D01*
X109270000Y-123714250D01*
X109428750Y-123873000D01*
X110873000Y-123873000D01*
X110873000Y-122653750D01*
X110714250Y-122495000D01*
X109905000Y-122491928D01*
X109780518Y-122504188D01*
X109660820Y-122540498D01*
X109550506Y-122599463D01*
X109453815Y-122678815D01*
X109374463Y-122775506D01*
X109315498Y-122885820D01*
X109279188Y-123005518D01*
X109266928Y-123130000D01*
X101887236Y-123130000D01*
X100292268Y-121535033D01*
X100900000Y-121538072D01*
X101024482Y-121525812D01*
X101144180Y-121489502D01*
X101254494Y-121430537D01*
X101351185Y-121351185D01*
X101430537Y-121254494D01*
X101489502Y-121144180D01*
X101525812Y-121024482D01*
X101538072Y-120900000D01*
X101535000Y-120285750D01*
X101376250Y-120127000D01*
X100127000Y-120127000D01*
X100127000Y-120147000D01*
X99873000Y-120147000D01*
X99873000Y-120127000D01*
X99853000Y-120127000D01*
X99853000Y-119873000D01*
X99873000Y-119873000D01*
X99873000Y-118623750D01*
X100127000Y-118623750D01*
X100127000Y-119873000D01*
X101376250Y-119873000D01*
X101535000Y-119714250D01*
X101538072Y-119100000D01*
X101525812Y-118975518D01*
X101489502Y-118855820D01*
X101430537Y-118745506D01*
X101351185Y-118648815D01*
X101254494Y-118569463D01*
X101144180Y-118510498D01*
X101024482Y-118474188D01*
X100900000Y-118461928D01*
X100285750Y-118465000D01*
X100127000Y-118623750D01*
X99873000Y-118623750D01*
X99714250Y-118465000D01*
X99100000Y-118461928D01*
X98975518Y-118474188D01*
X98855820Y-118510498D01*
X98745506Y-118569463D01*
X98648815Y-118648815D01*
X98569463Y-118745506D01*
X98516120Y-118845303D01*
X98478505Y-118807688D01*
X98227095Y-118639701D01*
X97947743Y-118523989D01*
X97651184Y-118465000D01*
X97348816Y-118465000D01*
X97052257Y-118523989D01*
X96772905Y-118639701D01*
X96521495Y-118807688D01*
X96307688Y-119021495D01*
X96250000Y-119107831D01*
X96192312Y-119021495D01*
X95978505Y-118807688D01*
X95727095Y-118639701D01*
X95447743Y-118523989D01*
X95151184Y-118465000D01*
X94848816Y-118465000D01*
X94552257Y-118523989D01*
X94272905Y-118639701D01*
X94021495Y-118807688D01*
X93807688Y-119021495D01*
X93639701Y-119272905D01*
X93523989Y-119552257D01*
X93465000Y-119848816D01*
X93465000Y-120151184D01*
X93523989Y-120447743D01*
X93639701Y-120727095D01*
X93807688Y-120978505D01*
X94021495Y-121192312D01*
X94272905Y-121360299D01*
X94552257Y-121476011D01*
X94848816Y-121535000D01*
X95151184Y-121535000D01*
X95447743Y-121476011D01*
X95727095Y-121360299D01*
X95978505Y-121192312D01*
X96192312Y-120978505D01*
X96250000Y-120892169D01*
X96307688Y-120978505D01*
X96521495Y-121192312D01*
X96772905Y-121360299D01*
X97052257Y-121476011D01*
X97348816Y-121535000D01*
X97651184Y-121535000D01*
X97756764Y-121513999D01*
X105920506Y-129677742D01*
X105948341Y-129711659D01*
X106083709Y-129822753D01*
X106238149Y-129905303D01*
X106304058Y-129925296D01*
X106405724Y-129956136D01*
X106438924Y-129959406D01*
X106536333Y-129969000D01*
X106536339Y-129969000D01*
X106579999Y-129973300D01*
X106623659Y-129969000D01*
X109557649Y-129969000D01*
X109705655Y-130149345D01*
X109934821Y-130337417D01*
X109958362Y-130350000D01*
X109934821Y-130362583D01*
X109705655Y-130550655D01*
X109517583Y-130779821D01*
X109377834Y-131041275D01*
X109291776Y-131324968D01*
X109280783Y-131436584D01*
X96902259Y-143815109D01*
X96868342Y-143842944D01*
X96840507Y-143876861D01*
X96840505Y-143876863D01*
X96757248Y-143978312D01*
X96674698Y-144132751D01*
X96623864Y-144300329D01*
X96606700Y-144474603D01*
X96611001Y-144518273D01*
X96611000Y-148747882D01*
X96521495Y-148807688D01*
X96307688Y-149021495D01*
X96250000Y-149107831D01*
X96192312Y-149021495D01*
X95978505Y-148807688D01*
X95727095Y-148639701D01*
X95447743Y-148523989D01*
X95151184Y-148465000D01*
X94848816Y-148465000D01*
X94552257Y-148523989D01*
X94272905Y-148639701D01*
X94021495Y-148807688D01*
X93807688Y-149021495D01*
X93639701Y-149272905D01*
X93523989Y-149552257D01*
X93465000Y-149848816D01*
X93465000Y-150151184D01*
X93523989Y-150447743D01*
X93639701Y-150727095D01*
X93807688Y-150978505D01*
X94021495Y-151192312D01*
X94272905Y-151360299D01*
X94552257Y-151476011D01*
X94848816Y-151535000D01*
X95151184Y-151535000D01*
X95447743Y-151476011D01*
X95727095Y-151360299D01*
X95978505Y-151192312D01*
X96192312Y-150978505D01*
X96250000Y-150892169D01*
X96307688Y-150978505D01*
X96521495Y-151192312D01*
X96772905Y-151360299D01*
X97052257Y-151476011D01*
X97348816Y-151535000D01*
X97651184Y-151535000D01*
X97947743Y-151476011D01*
X98227095Y-151360299D01*
X98478505Y-151192312D01*
X98516120Y-151154697D01*
X98569463Y-151254494D01*
X98648815Y-151351185D01*
X98745506Y-151430537D01*
X98855820Y-151489502D01*
X98975518Y-151525812D01*
X99100000Y-151538072D01*
X99714250Y-151535000D01*
X99873000Y-151376250D01*
X99873000Y-150127000D01*
X100127000Y-150127000D01*
X100127000Y-151376250D01*
X100285750Y-151535000D01*
X100900000Y-151538072D01*
X101024482Y-151525812D01*
X101144180Y-151489502D01*
X101254494Y-151430537D01*
X101351185Y-151351185D01*
X101430537Y-151254494D01*
X101489502Y-151144180D01*
X101525812Y-151024482D01*
X101538072Y-150900000D01*
X101535000Y-150285750D01*
X101376250Y-150127000D01*
X100127000Y-150127000D01*
X99873000Y-150127000D01*
X99853000Y-150127000D01*
X99853000Y-149873000D01*
X99873000Y-149873000D01*
X99873000Y-148623750D01*
X100127000Y-148623750D01*
X100127000Y-149873000D01*
X101376250Y-149873000D01*
X101535000Y-149714250D01*
X101538072Y-149100000D01*
X101525812Y-148975518D01*
X101489502Y-148855820D01*
X101430537Y-148745506D01*
X101351185Y-148648815D01*
X101254494Y-148569463D01*
X101144180Y-148510498D01*
X101024482Y-148474188D01*
X100900000Y-148461928D01*
X100285750Y-148465000D01*
X100127000Y-148623750D01*
X99873000Y-148623750D01*
X99714250Y-148465000D01*
X99100000Y-148461928D01*
X98975518Y-148474188D01*
X98855820Y-148510498D01*
X98745506Y-148569463D01*
X98648815Y-148648815D01*
X98569463Y-148745506D01*
X98516120Y-148845303D01*
X98478505Y-148807688D01*
X98389000Y-148747883D01*
X98389000Y-144842838D01*
X100311172Y-142920666D01*
X100333867Y-143151088D01*
X100447943Y-143527147D01*
X100633193Y-143873725D01*
X100882498Y-144177503D01*
X101186276Y-144426807D01*
X101532854Y-144612057D01*
X101908913Y-144726133D01*
X102300000Y-144764652D01*
X102691088Y-144726133D01*
X103067147Y-144612057D01*
X103225010Y-144527677D01*
X103225011Y-167492356D01*
X96902264Y-173815104D01*
X96868341Y-173842944D01*
X96757247Y-173978313D01*
X96674697Y-174132753D01*
X96623864Y-174300330D01*
X96611000Y-174430937D01*
X96611000Y-174430943D01*
X96606700Y-174474603D01*
X96611000Y-174518263D01*
X96611001Y-178747882D01*
X96521495Y-178807688D01*
X96307688Y-179021495D01*
X96250000Y-179107831D01*
X96192312Y-179021495D01*
X95978505Y-178807688D01*
X95727095Y-178639701D01*
X95447743Y-178523989D01*
X95151184Y-178465000D01*
X94848816Y-178465000D01*
X94552257Y-178523989D01*
X94272905Y-178639701D01*
X94021495Y-178807688D01*
X93807688Y-179021495D01*
X93639701Y-179272905D01*
X93523989Y-179552257D01*
X93465000Y-179848816D01*
X93465000Y-180151184D01*
X93523989Y-180447743D01*
X93639701Y-180727095D01*
X93807688Y-180978505D01*
X94021495Y-181192312D01*
X94242525Y-181340000D01*
X89660000Y-181340000D01*
X89660000Y-172142003D01*
X90705000Y-172142003D01*
X90705000Y-172857998D01*
X90733867Y-173151088D01*
X90847943Y-173527147D01*
X91033193Y-173873725D01*
X91282498Y-174177503D01*
X91586276Y-174426807D01*
X91932854Y-174612057D01*
X92308913Y-174726133D01*
X92700000Y-174764652D01*
X93091088Y-174726133D01*
X93467147Y-174612057D01*
X93813725Y-174426807D01*
X94117503Y-174177503D01*
X94366807Y-173873725D01*
X94552057Y-173527147D01*
X94666133Y-173151087D01*
X94695000Y-172857997D01*
X94695000Y-172142002D01*
X94666133Y-171848912D01*
X94552057Y-171472853D01*
X94366807Y-171126275D01*
X94117503Y-170822497D01*
X93813725Y-170573193D01*
X93467146Y-170387943D01*
X93091087Y-170273867D01*
X92700000Y-170235348D01*
X92308912Y-170273867D01*
X91932853Y-170387943D01*
X91586275Y-170573193D01*
X91282497Y-170822497D01*
X91033193Y-171126275D01*
X90847943Y-171472854D01*
X90733867Y-171848913D01*
X90705000Y-172142003D01*
X89660000Y-172142003D01*
X89660000Y-163858665D01*
X93565000Y-163858665D01*
X93565000Y-164141335D01*
X93620147Y-164418574D01*
X93728320Y-164679727D01*
X93885363Y-164914759D01*
X94085241Y-165114637D01*
X94320273Y-165271680D01*
X94581426Y-165379853D01*
X94858665Y-165435000D01*
X95141335Y-165435000D01*
X95418574Y-165379853D01*
X95679727Y-165271680D01*
X95914759Y-165114637D01*
X96114637Y-164914759D01*
X96271680Y-164679727D01*
X96379853Y-164418574D01*
X96435000Y-164141335D01*
X96435000Y-164018665D01*
X99565000Y-164018665D01*
X99565000Y-164301335D01*
X99620147Y-164578574D01*
X99728320Y-164839727D01*
X99885363Y-165074759D01*
X100085241Y-165274637D01*
X100320273Y-165431680D01*
X100581426Y-165539853D01*
X100858665Y-165595000D01*
X101141335Y-165595000D01*
X101418574Y-165539853D01*
X101679727Y-165431680D01*
X101914759Y-165274637D01*
X102114637Y-165074759D01*
X102271680Y-164839727D01*
X102379853Y-164578574D01*
X102435000Y-164301335D01*
X102435000Y-164018665D01*
X102379853Y-163741426D01*
X102271680Y-163480273D01*
X102114637Y-163245241D01*
X101914759Y-163045363D01*
X101679727Y-162888320D01*
X101418574Y-162780147D01*
X101141335Y-162725000D01*
X100858665Y-162725000D01*
X100581426Y-162780147D01*
X100320273Y-162888320D01*
X100085241Y-163045363D01*
X99885363Y-163245241D01*
X99728320Y-163480273D01*
X99620147Y-163741426D01*
X99565000Y-164018665D01*
X96435000Y-164018665D01*
X96435000Y-163858665D01*
X96379853Y-163581426D01*
X96271680Y-163320273D01*
X96114637Y-163085241D01*
X95914759Y-162885363D01*
X95679727Y-162728320D01*
X95418574Y-162620147D01*
X95141335Y-162565000D01*
X94858665Y-162565000D01*
X94581426Y-162620147D01*
X94320273Y-162728320D01*
X94085241Y-162885363D01*
X93885363Y-163085241D01*
X93728320Y-163320273D01*
X93620147Y-163581426D01*
X93565000Y-163858665D01*
X89660000Y-163858665D01*
X89660000Y-153698665D01*
X93565000Y-153698665D01*
X93565000Y-153981335D01*
X93620147Y-154258574D01*
X93728320Y-154519727D01*
X93885363Y-154754759D01*
X94085241Y-154954637D01*
X94320273Y-155111680D01*
X94581426Y-155219853D01*
X94858665Y-155275000D01*
X95141335Y-155275000D01*
X95418574Y-155219853D01*
X95679727Y-155111680D01*
X95914759Y-154954637D01*
X96114637Y-154754759D01*
X96271680Y-154519727D01*
X96379853Y-154258574D01*
X96435000Y-153981335D01*
X96435000Y-153858665D01*
X99565000Y-153858665D01*
X99565000Y-154141335D01*
X99620147Y-154418574D01*
X99728320Y-154679727D01*
X99885363Y-154914759D01*
X100085241Y-155114637D01*
X100320273Y-155271680D01*
X100581426Y-155379853D01*
X100858665Y-155435000D01*
X101141335Y-155435000D01*
X101418574Y-155379853D01*
X101679727Y-155271680D01*
X101914759Y-155114637D01*
X102114637Y-154914759D01*
X102271680Y-154679727D01*
X102379853Y-154418574D01*
X102435000Y-154141335D01*
X102435000Y-153858665D01*
X102379853Y-153581426D01*
X102271680Y-153320273D01*
X102114637Y-153085241D01*
X101914759Y-152885363D01*
X101679727Y-152728320D01*
X101418574Y-152620147D01*
X101141335Y-152565000D01*
X100858665Y-152565000D01*
X100581426Y-152620147D01*
X100320273Y-152728320D01*
X100085241Y-152885363D01*
X99885363Y-153085241D01*
X99728320Y-153320273D01*
X99620147Y-153581426D01*
X99565000Y-153858665D01*
X96435000Y-153858665D01*
X96435000Y-153698665D01*
X96379853Y-153421426D01*
X96271680Y-153160273D01*
X96114637Y-152925241D01*
X95914759Y-152725363D01*
X95679727Y-152568320D01*
X95418574Y-152460147D01*
X95141335Y-152405000D01*
X94858665Y-152405000D01*
X94581426Y-152460147D01*
X94320273Y-152568320D01*
X94085241Y-152725363D01*
X93885363Y-152925241D01*
X93728320Y-153160273D01*
X93620147Y-153421426D01*
X93565000Y-153698665D01*
X89660000Y-153698665D01*
X89660000Y-142142003D01*
X90705000Y-142142003D01*
X90705000Y-142857998D01*
X90733867Y-143151088D01*
X90847943Y-143527147D01*
X91033193Y-143873725D01*
X91282498Y-144177503D01*
X91586276Y-144426807D01*
X91932854Y-144612057D01*
X92308913Y-144726133D01*
X92700000Y-144764652D01*
X93091088Y-144726133D01*
X93467147Y-144612057D01*
X93813725Y-144426807D01*
X94117503Y-144177503D01*
X94366807Y-143873725D01*
X94552057Y-143527147D01*
X94666133Y-143151087D01*
X94695000Y-142857997D01*
X94695000Y-142142002D01*
X94666133Y-141848912D01*
X94552057Y-141472853D01*
X94366807Y-141126275D01*
X94117503Y-140822497D01*
X93813725Y-140573193D01*
X93467146Y-140387943D01*
X93091087Y-140273867D01*
X92700000Y-140235348D01*
X92308912Y-140273867D01*
X91932853Y-140387943D01*
X91586275Y-140573193D01*
X91282497Y-140822497D01*
X91033193Y-141126275D01*
X90847943Y-141472854D01*
X90733867Y-141848913D01*
X90705000Y-142142003D01*
X89660000Y-142142003D01*
X89660000Y-124858665D01*
X93405000Y-124858665D01*
X93405000Y-125141335D01*
X93460147Y-125418574D01*
X93568320Y-125679727D01*
X93725363Y-125914759D01*
X93925241Y-126114637D01*
X94160273Y-126271680D01*
X94421426Y-126379853D01*
X94698665Y-126435000D01*
X94981335Y-126435000D01*
X95258574Y-126379853D01*
X95519727Y-126271680D01*
X95754759Y-126114637D01*
X95954637Y-125914759D01*
X96111680Y-125679727D01*
X96219853Y-125418574D01*
X96275000Y-125141335D01*
X96275000Y-124858665D01*
X96219853Y-124581426D01*
X96111680Y-124320273D01*
X95954637Y-124085241D01*
X95754759Y-123885363D01*
X95519727Y-123728320D01*
X95258574Y-123620147D01*
X94981335Y-123565000D01*
X94698665Y-123565000D01*
X94421426Y-123620147D01*
X94160273Y-123728320D01*
X93925241Y-123885363D01*
X93725363Y-124085241D01*
X93568320Y-124320273D01*
X93460147Y-124581426D01*
X93405000Y-124858665D01*
X89660000Y-124858665D01*
X89660000Y-112142003D01*
X90705000Y-112142003D01*
X90705000Y-112857998D01*
X90733867Y-113151088D01*
X90847943Y-113527147D01*
X91033193Y-113873725D01*
X91282498Y-114177503D01*
X91586276Y-114426807D01*
X91932854Y-114612057D01*
X92308913Y-114726133D01*
X92700000Y-114764652D01*
X93091088Y-114726133D01*
X93467147Y-114612057D01*
X93813725Y-114426807D01*
X94117503Y-114177503D01*
X94366807Y-113873725D01*
X94552057Y-113527147D01*
X94666133Y-113151087D01*
X94695000Y-112857997D01*
X94695000Y-112142003D01*
X100305000Y-112142003D01*
X100305000Y-112857998D01*
X100333867Y-113151088D01*
X100447943Y-113527147D01*
X100633193Y-113873725D01*
X100882498Y-114177503D01*
X101186276Y-114426807D01*
X101532854Y-114612057D01*
X101908913Y-114726133D01*
X102300000Y-114764652D01*
X102691088Y-114726133D01*
X103067147Y-114612057D01*
X103413725Y-114426807D01*
X103717503Y-114177503D01*
X103966807Y-113873725D01*
X104152057Y-113527147D01*
X104266133Y-113151087D01*
X104295000Y-112857997D01*
X104295000Y-112142002D01*
X104266133Y-111848912D01*
X104152057Y-111472853D01*
X103966807Y-111126275D01*
X103717503Y-110822497D01*
X103413725Y-110573193D01*
X103067146Y-110387943D01*
X102691087Y-110273867D01*
X102300000Y-110235348D01*
X101908912Y-110273867D01*
X101532853Y-110387943D01*
X101186275Y-110573193D01*
X100882497Y-110822497D01*
X100633193Y-111126275D01*
X100447943Y-111472854D01*
X100333867Y-111848913D01*
X100305000Y-112142003D01*
X94695000Y-112142003D01*
X94695000Y-112142002D01*
X94666133Y-111848912D01*
X94552057Y-111472853D01*
X94366807Y-111126275D01*
X94117503Y-110822497D01*
X93813725Y-110573193D01*
X93467146Y-110387943D01*
X93091087Y-110273867D01*
X92700000Y-110235348D01*
X92308912Y-110273867D01*
X91932853Y-110387943D01*
X91586275Y-110573193D01*
X91282497Y-110822497D01*
X91033193Y-111126275D01*
X90847943Y-111472854D01*
X90733867Y-111848913D01*
X90705000Y-112142003D01*
X89660000Y-112142003D01*
X89660000Y-93858665D01*
X93405000Y-93858665D01*
X93405000Y-94141335D01*
X93460147Y-94418574D01*
X93568320Y-94679727D01*
X93725363Y-94914759D01*
X93925241Y-95114637D01*
X94160273Y-95271680D01*
X94421426Y-95379853D01*
X94698665Y-95435000D01*
X94981335Y-95435000D01*
X95258574Y-95379853D01*
X95519727Y-95271680D01*
X95754759Y-95114637D01*
X95954637Y-94914759D01*
X96111680Y-94679727D01*
X96219853Y-94418574D01*
X96275000Y-94141335D01*
X96275000Y-93858665D01*
X96219853Y-93581426D01*
X96111680Y-93320273D01*
X95954637Y-93085241D01*
X95754759Y-92885363D01*
X95519727Y-92728320D01*
X95258574Y-92620147D01*
X94981335Y-92565000D01*
X94698665Y-92565000D01*
X94421426Y-92620147D01*
X94160273Y-92728320D01*
X93925241Y-92885363D01*
X93725363Y-93085241D01*
X93568320Y-93320273D01*
X93460147Y-93581426D01*
X93405000Y-93858665D01*
X89660000Y-93858665D01*
X89660000Y-82142003D01*
X90705000Y-82142003D01*
X90705000Y-82857998D01*
X90733867Y-83151088D01*
X90847943Y-83527147D01*
X91033193Y-83873725D01*
X91282498Y-84177503D01*
X91586276Y-84426807D01*
X91932854Y-84612057D01*
X92308913Y-84726133D01*
X92700000Y-84764652D01*
X93091088Y-84726133D01*
X93467147Y-84612057D01*
X93813725Y-84426807D01*
X94117503Y-84177503D01*
X94366807Y-83873725D01*
X94552057Y-83527147D01*
X94666133Y-83151087D01*
X94695000Y-82857997D01*
X94695000Y-82142003D01*
X100305000Y-82142003D01*
X100305000Y-82857998D01*
X100333867Y-83151088D01*
X100447943Y-83527147D01*
X100633193Y-83873725D01*
X100882498Y-84177503D01*
X101186276Y-84426807D01*
X101532854Y-84612057D01*
X101908913Y-84726133D01*
X102300000Y-84764652D01*
X102691088Y-84726133D01*
X103067147Y-84612057D01*
X103413725Y-84426807D01*
X103717503Y-84177503D01*
X103966807Y-83873725D01*
X104152057Y-83527147D01*
X104266133Y-83151087D01*
X104295000Y-82857997D01*
X104295000Y-82142002D01*
X104266133Y-81848912D01*
X104152057Y-81472853D01*
X103966807Y-81126275D01*
X103717503Y-80822497D01*
X103413725Y-80573193D01*
X103067146Y-80387943D01*
X102691087Y-80273867D01*
X102300000Y-80235348D01*
X101908912Y-80273867D01*
X101532853Y-80387943D01*
X101186275Y-80573193D01*
X100882497Y-80822497D01*
X100633193Y-81126275D01*
X100447943Y-81472854D01*
X100333867Y-81848913D01*
X100305000Y-82142003D01*
X94695000Y-82142003D01*
X94695000Y-82142002D01*
X94666133Y-81848912D01*
X94552057Y-81472853D01*
X94366807Y-81126275D01*
X94117503Y-80822497D01*
X93813725Y-80573193D01*
X93467146Y-80387943D01*
X93091087Y-80273867D01*
X92700000Y-80235348D01*
X92308912Y-80273867D01*
X91932853Y-80387943D01*
X91586275Y-80573193D01*
X91282497Y-80822497D01*
X91033193Y-81126275D01*
X90847943Y-81472854D01*
X90733867Y-81848913D01*
X90705000Y-82142003D01*
X89660000Y-82142003D01*
X89660000Y-76660000D01*
X115340000Y-76660000D01*
X115340001Y-181340000D01*
%TA.AperFunction,Conductor*%
D18*
G36*
X115340001Y-181340000D02*
G01*
X101360364Y-181340000D01*
X101430537Y-181254494D01*
X101489502Y-181144180D01*
X101525812Y-181024482D01*
X101538072Y-180900000D01*
X101535000Y-180285750D01*
X101376250Y-180127000D01*
X100127000Y-180127000D01*
X100127000Y-180147000D01*
X99873000Y-180147000D01*
X99873000Y-180127000D01*
X99853000Y-180127000D01*
X99853000Y-179873000D01*
X99873000Y-179873000D01*
X99873000Y-178623750D01*
X100127000Y-178623750D01*
X100127000Y-179873000D01*
X101376250Y-179873000D01*
X101535000Y-179714250D01*
X101538072Y-179100000D01*
X101530062Y-179018665D01*
X107565000Y-179018665D01*
X107565000Y-179301335D01*
X107620147Y-179578574D01*
X107728320Y-179839727D01*
X107885363Y-180074759D01*
X108085241Y-180274637D01*
X108320273Y-180431680D01*
X108581426Y-180539853D01*
X108858665Y-180595000D01*
X109141335Y-180595000D01*
X109418574Y-180539853D01*
X109679727Y-180431680D01*
X109914759Y-180274637D01*
X110114637Y-180074759D01*
X110271680Y-179839727D01*
X110379853Y-179578574D01*
X110435000Y-179301335D01*
X110435000Y-179018665D01*
X110379853Y-178741426D01*
X110271680Y-178480273D01*
X110114637Y-178245241D01*
X109914759Y-178045363D01*
X109679727Y-177888320D01*
X109418574Y-177780147D01*
X109141335Y-177725000D01*
X108858665Y-177725000D01*
X108581426Y-177780147D01*
X108320273Y-177888320D01*
X108085241Y-178045363D01*
X107885363Y-178245241D01*
X107728320Y-178480273D01*
X107620147Y-178741426D01*
X107565000Y-179018665D01*
X101530062Y-179018665D01*
X101525812Y-178975518D01*
X101489502Y-178855820D01*
X101430537Y-178745506D01*
X101351185Y-178648815D01*
X101254494Y-178569463D01*
X101144180Y-178510498D01*
X101024482Y-178474188D01*
X100900000Y-178461928D01*
X100285750Y-178465000D01*
X100127000Y-178623750D01*
X99873000Y-178623750D01*
X99714250Y-178465000D01*
X99100000Y-178461928D01*
X98975518Y-178474188D01*
X98855820Y-178510498D01*
X98745506Y-178569463D01*
X98648815Y-178648815D01*
X98569463Y-178745506D01*
X98516120Y-178845303D01*
X98478505Y-178807688D01*
X98389000Y-178747883D01*
X98389000Y-174842838D01*
X100311172Y-172920666D01*
X100333867Y-173151088D01*
X100447943Y-173527147D01*
X100633193Y-173873725D01*
X100882498Y-174177503D01*
X101186276Y-174426807D01*
X101532854Y-174612057D01*
X101908913Y-174726133D01*
X102300000Y-174764652D01*
X102691088Y-174726133D01*
X103067147Y-174612057D01*
X103413725Y-174426807D01*
X103717503Y-174177503D01*
X103966807Y-173873725D01*
X104152057Y-173527147D01*
X104266133Y-173151087D01*
X104295000Y-172857997D01*
X104295000Y-172142002D01*
X104266133Y-171848912D01*
X104152057Y-171472853D01*
X103966807Y-171126275D01*
X103717503Y-170822497D01*
X103413725Y-170573193D01*
X103067146Y-170387943D01*
X102895856Y-170335983D01*
X104373174Y-168858665D01*
X107565000Y-168858665D01*
X107565000Y-169141335D01*
X107620147Y-169418574D01*
X107728320Y-169679727D01*
X107885363Y-169914759D01*
X108085241Y-170114637D01*
X108320273Y-170271680D01*
X108581426Y-170379853D01*
X108858665Y-170435000D01*
X109141335Y-170435000D01*
X109418574Y-170379853D01*
X109679727Y-170271680D01*
X109914759Y-170114637D01*
X110114637Y-169914759D01*
X110271680Y-169679727D01*
X110379853Y-169418574D01*
X110435000Y-169141335D01*
X110435000Y-168858665D01*
X110379853Y-168581426D01*
X110271680Y-168320273D01*
X110114637Y-168085241D01*
X109914759Y-167885363D01*
X109679727Y-167728320D01*
X109418574Y-167620147D01*
X109141335Y-167565000D01*
X108858665Y-167565000D01*
X108581426Y-167620147D01*
X108320273Y-167728320D01*
X108085241Y-167885363D01*
X107885363Y-168085241D01*
X107728320Y-168320273D01*
X107620147Y-168581426D01*
X107565000Y-168858665D01*
X104373174Y-168858665D01*
X104711752Y-168520087D01*
X104745669Y-168492252D01*
X104856763Y-168356884D01*
X104939313Y-168202444D01*
X104990146Y-168034867D01*
X105003010Y-167904260D01*
X105003010Y-167904253D01*
X105007310Y-167860593D01*
X105003010Y-167816933D01*
X105003010Y-163858665D01*
X105565000Y-163858665D01*
X105565000Y-164141335D01*
X105620147Y-164418574D01*
X105728320Y-164679727D01*
X105885363Y-164914759D01*
X106085241Y-165114637D01*
X106320273Y-165271680D01*
X106581426Y-165379853D01*
X106858665Y-165435000D01*
X107141335Y-165435000D01*
X107418574Y-165379853D01*
X107679727Y-165271680D01*
X107914759Y-165114637D01*
X108114637Y-164914759D01*
X108271680Y-164679727D01*
X108379853Y-164418574D01*
X108435000Y-164141335D01*
X108435000Y-163858665D01*
X108379853Y-163581426D01*
X108271680Y-163320273D01*
X108114637Y-163085241D01*
X107914759Y-162885363D01*
X107679727Y-162728320D01*
X107418574Y-162620147D01*
X107141335Y-162565000D01*
X106858665Y-162565000D01*
X106581426Y-162620147D01*
X106320273Y-162728320D01*
X106085241Y-162885363D01*
X105885363Y-163085241D01*
X105728320Y-163320273D01*
X105620147Y-163581426D01*
X105565000Y-163858665D01*
X105003010Y-163858665D01*
X105003010Y-153698665D01*
X105565000Y-153698665D01*
X105565000Y-153981335D01*
X105620147Y-154258574D01*
X105728320Y-154519727D01*
X105885363Y-154754759D01*
X106085241Y-154954637D01*
X106320273Y-155111680D01*
X106581426Y-155219853D01*
X106858665Y-155275000D01*
X107141335Y-155275000D01*
X107418574Y-155219853D01*
X107679727Y-155111680D01*
X107914759Y-154954637D01*
X108114637Y-154754759D01*
X108271680Y-154519727D01*
X108379853Y-154258574D01*
X108435000Y-153981335D01*
X108435000Y-153698665D01*
X108379853Y-153421426D01*
X108271680Y-153160273D01*
X108114637Y-152925241D01*
X107914759Y-152725363D01*
X107679727Y-152568320D01*
X107418574Y-152460147D01*
X107141335Y-152405000D01*
X106858665Y-152405000D01*
X106581426Y-152460147D01*
X106320273Y-152568320D01*
X106085241Y-152725363D01*
X105885363Y-152925241D01*
X105728320Y-153160273D01*
X105620147Y-153421426D01*
X105565000Y-153698665D01*
X105003010Y-153698665D01*
X105003010Y-141414225D01*
X109322132Y-137095103D01*
X109377834Y-137278725D01*
X109517583Y-137540179D01*
X109705655Y-137769345D01*
X109934821Y-137957417D01*
X110196275Y-138097166D01*
X110479968Y-138183224D01*
X110701064Y-138205000D01*
X111298936Y-138205000D01*
X111520032Y-138183224D01*
X111803725Y-138097166D01*
X112065179Y-137957417D01*
X112294345Y-137769345D01*
X112482417Y-137540179D01*
X112622166Y-137278725D01*
X112708224Y-136995032D01*
X112737282Y-136700000D01*
X112708224Y-136404968D01*
X112622166Y-136121275D01*
X112482417Y-135859821D01*
X112294345Y-135630655D01*
X112065179Y-135442583D01*
X112041638Y-135430000D01*
X112065179Y-135417417D01*
X112294345Y-135229345D01*
X112482417Y-135000179D01*
X112622166Y-134738725D01*
X112708224Y-134455032D01*
X112737282Y-134160000D01*
X112708224Y-133864968D01*
X112622166Y-133581275D01*
X112482417Y-133319821D01*
X112294345Y-133090655D01*
X112065179Y-132902583D01*
X112041638Y-132890000D01*
X112065179Y-132877417D01*
X112294345Y-132689345D01*
X112482417Y-132460179D01*
X112622166Y-132198725D01*
X112708224Y-131915032D01*
X112737282Y-131620000D01*
X112708224Y-131324968D01*
X112622166Y-131041275D01*
X112482417Y-130779821D01*
X112294345Y-130550655D01*
X112065179Y-130362583D01*
X112041638Y-130350000D01*
X112065179Y-130337417D01*
X112294345Y-130149345D01*
X112482417Y-129920179D01*
X112622166Y-129658725D01*
X112708224Y-129375032D01*
X112737282Y-129080000D01*
X112708224Y-128784968D01*
X112622166Y-128501275D01*
X112482417Y-128239821D01*
X112294345Y-128010655D01*
X112065179Y-127822583D01*
X112041638Y-127810000D01*
X112065179Y-127797417D01*
X112294345Y-127609345D01*
X112482417Y-127380179D01*
X112622166Y-127118725D01*
X112708224Y-126835032D01*
X112737282Y-126540000D01*
X112708224Y-126244968D01*
X112671926Y-126125310D01*
X113146752Y-125650484D01*
X113180669Y-125622649D01*
X113291763Y-125487281D01*
X113374313Y-125332841D01*
X113425146Y-125165264D01*
X113438010Y-125034657D01*
X113438010Y-125034650D01*
X113442310Y-124990990D01*
X113438010Y-124947330D01*
X113438010Y-105092669D01*
X113442310Y-105049009D01*
X113438010Y-105005349D01*
X113438010Y-105005343D01*
X113425146Y-104874736D01*
X113374313Y-104707159D01*
X113291763Y-104552719D01*
X113180669Y-104417351D01*
X113146753Y-104389517D01*
X102615901Y-93858665D01*
X103565000Y-93858665D01*
X103565000Y-94141335D01*
X103620147Y-94418574D01*
X103728320Y-94679727D01*
X103885363Y-94914759D01*
X104085241Y-95114637D01*
X104320273Y-95271680D01*
X104581426Y-95379853D01*
X104858665Y-95435000D01*
X105141335Y-95435000D01*
X105418574Y-95379853D01*
X105679727Y-95271680D01*
X105914759Y-95114637D01*
X106114637Y-94914759D01*
X106271680Y-94679727D01*
X106379853Y-94418574D01*
X106435000Y-94141335D01*
X106435000Y-93858665D01*
X106379853Y-93581426D01*
X106271680Y-93320273D01*
X106114637Y-93085241D01*
X105914759Y-92885363D01*
X105679727Y-92728320D01*
X105418574Y-92620147D01*
X105141335Y-92565000D01*
X104858665Y-92565000D01*
X104581426Y-92620147D01*
X104320273Y-92728320D01*
X104085241Y-92885363D01*
X103885363Y-93085241D01*
X103728320Y-93320273D01*
X103620147Y-93581426D01*
X103565000Y-93858665D01*
X102615901Y-93858665D01*
X100292268Y-91535033D01*
X100900000Y-91538072D01*
X101024482Y-91525812D01*
X101144180Y-91489502D01*
X101254494Y-91430537D01*
X101351185Y-91351185D01*
X101430537Y-91254494D01*
X101489502Y-91144180D01*
X101525812Y-91024482D01*
X101538072Y-90900000D01*
X101535000Y-90285750D01*
X101376250Y-90127000D01*
X100127000Y-90127000D01*
X100127000Y-90147000D01*
X99873000Y-90147000D01*
X99873000Y-90127000D01*
X99853000Y-90127000D01*
X99853000Y-89873000D01*
X99873000Y-89873000D01*
X99873000Y-88623750D01*
X100127000Y-88623750D01*
X100127000Y-89873000D01*
X101376250Y-89873000D01*
X101535000Y-89714250D01*
X101538072Y-89100000D01*
X101525812Y-88975518D01*
X101489502Y-88855820D01*
X101430537Y-88745506D01*
X101351185Y-88648815D01*
X101254494Y-88569463D01*
X101144180Y-88510498D01*
X101024482Y-88474188D01*
X100900000Y-88461928D01*
X100285750Y-88465000D01*
X100127000Y-88623750D01*
X99873000Y-88623750D01*
X99714250Y-88465000D01*
X99100000Y-88461928D01*
X98975518Y-88474188D01*
X98855820Y-88510498D01*
X98745506Y-88569463D01*
X98648815Y-88648815D01*
X98569463Y-88745506D01*
X98516120Y-88845303D01*
X98478505Y-88807688D01*
X98227095Y-88639701D01*
X97947743Y-88523989D01*
X97651184Y-88465000D01*
X97348816Y-88465000D01*
X97052257Y-88523989D01*
X96772905Y-88639701D01*
X96521495Y-88807688D01*
X96307688Y-89021495D01*
X96250000Y-89107831D01*
X96192312Y-89021495D01*
X95978505Y-88807688D01*
X95727095Y-88639701D01*
X95447743Y-88523989D01*
X95151184Y-88465000D01*
X94848816Y-88465000D01*
X94552257Y-88523989D01*
X94272905Y-88639701D01*
X94021495Y-88807688D01*
X93807688Y-89021495D01*
X93639701Y-89272905D01*
X93523989Y-89552257D01*
X93465000Y-89848816D01*
X93465000Y-90151184D01*
X93523989Y-90447743D01*
X93639701Y-90727095D01*
X93807688Y-90978505D01*
X94021495Y-91192312D01*
X94272905Y-91360299D01*
X94552257Y-91476011D01*
X94848816Y-91535000D01*
X95151184Y-91535000D01*
X95447743Y-91476011D01*
X95727095Y-91360299D01*
X95978505Y-91192312D01*
X96192312Y-90978505D01*
X96250000Y-90892169D01*
X96307688Y-90978505D01*
X96521495Y-91192312D01*
X96772905Y-91360299D01*
X97052257Y-91476011D01*
X97348816Y-91535000D01*
X97651184Y-91535000D01*
X97756764Y-91513999D01*
X111660010Y-105417246D01*
X111660011Y-122493579D01*
X111285750Y-122495000D01*
X111127000Y-122653750D01*
X111127000Y-123873000D01*
X111147000Y-123873000D01*
X111147000Y-124127000D01*
X111127000Y-124127000D01*
X111127000Y-124147000D01*
X110873000Y-124147000D01*
X110873000Y-124127000D01*
X109428750Y-124127000D01*
X109270000Y-124285750D01*
X109266928Y-124870000D01*
X109279188Y-124994482D01*
X109315498Y-125114180D01*
X109374463Y-125224494D01*
X109453815Y-125321185D01*
X109550506Y-125400537D01*
X109660820Y-125459502D01*
X109704047Y-125472615D01*
X109517583Y-125699821D01*
X109377834Y-125961275D01*
X109291776Y-126244968D01*
X109262718Y-126540000D01*
X109291776Y-126835032D01*
X109377834Y-127118725D01*
X109517583Y-127380179D01*
X109705655Y-127609345D01*
X109934821Y-127797417D01*
X109958362Y-127810000D01*
X109934821Y-127822583D01*
X109705655Y-128010655D01*
X109557649Y-128191000D01*
X106948236Y-128191000D01*
X105183791Y-126426555D01*
X105418574Y-126379853D01*
X105679727Y-126271680D01*
X105914759Y-126114637D01*
X106114637Y-125914759D01*
X106271680Y-125679727D01*
X106379853Y-125418574D01*
X106435000Y-125141335D01*
X106435000Y-124858665D01*
X106379853Y-124581426D01*
X106271680Y-124320273D01*
X106114637Y-124085241D01*
X105914759Y-123885363D01*
X105679727Y-123728320D01*
X105418574Y-123620147D01*
X105141335Y-123565000D01*
X104858665Y-123565000D01*
X104581426Y-123620147D01*
X104320273Y-123728320D01*
X104085241Y-123885363D01*
X103885363Y-124085241D01*
X103728320Y-124320273D01*
X103620147Y-124581426D01*
X103573445Y-124816209D01*
X101887236Y-123130000D01*
X109266928Y-123130000D01*
X109270000Y-123714250D01*
X109428750Y-123873000D01*
X110873000Y-123873000D01*
X110873000Y-122653750D01*
X110714250Y-122495000D01*
X109905000Y-122491928D01*
X109780518Y-122504188D01*
X109660820Y-122540498D01*
X109550506Y-122599463D01*
X109453815Y-122678815D01*
X109374463Y-122775506D01*
X109315498Y-122885820D01*
X109279188Y-123005518D01*
X109266928Y-123130000D01*
X101887236Y-123130000D01*
X100292268Y-121535033D01*
X100900000Y-121538072D01*
X101024482Y-121525812D01*
X101144180Y-121489502D01*
X101254494Y-121430537D01*
X101351185Y-121351185D01*
X101430537Y-121254494D01*
X101489502Y-121144180D01*
X101525812Y-121024482D01*
X101538072Y-120900000D01*
X101535000Y-120285750D01*
X101376250Y-120127000D01*
X100127000Y-120127000D01*
X100127000Y-120147000D01*
X99873000Y-120147000D01*
X99873000Y-120127000D01*
X99853000Y-120127000D01*
X99853000Y-119873000D01*
X99873000Y-119873000D01*
X99873000Y-118623750D01*
X100127000Y-118623750D01*
X100127000Y-119873000D01*
X101376250Y-119873000D01*
X101535000Y-119714250D01*
X101538072Y-119100000D01*
X101525812Y-118975518D01*
X101489502Y-118855820D01*
X101430537Y-118745506D01*
X101351185Y-118648815D01*
X101254494Y-118569463D01*
X101144180Y-118510498D01*
X101024482Y-118474188D01*
X100900000Y-118461928D01*
X100285750Y-118465000D01*
X100127000Y-118623750D01*
X99873000Y-118623750D01*
X99714250Y-118465000D01*
X99100000Y-118461928D01*
X98975518Y-118474188D01*
X98855820Y-118510498D01*
X98745506Y-118569463D01*
X98648815Y-118648815D01*
X98569463Y-118745506D01*
X98516120Y-118845303D01*
X98478505Y-118807688D01*
X98227095Y-118639701D01*
X97947743Y-118523989D01*
X97651184Y-118465000D01*
X97348816Y-118465000D01*
X97052257Y-118523989D01*
X96772905Y-118639701D01*
X96521495Y-118807688D01*
X96307688Y-119021495D01*
X96250000Y-119107831D01*
X96192312Y-119021495D01*
X95978505Y-118807688D01*
X95727095Y-118639701D01*
X95447743Y-118523989D01*
X95151184Y-118465000D01*
X94848816Y-118465000D01*
X94552257Y-118523989D01*
X94272905Y-118639701D01*
X94021495Y-118807688D01*
X93807688Y-119021495D01*
X93639701Y-119272905D01*
X93523989Y-119552257D01*
X93465000Y-119848816D01*
X93465000Y-120151184D01*
X93523989Y-120447743D01*
X93639701Y-120727095D01*
X93807688Y-120978505D01*
X94021495Y-121192312D01*
X94272905Y-121360299D01*
X94552257Y-121476011D01*
X94848816Y-121535000D01*
X95151184Y-121535000D01*
X95447743Y-121476011D01*
X95727095Y-121360299D01*
X95978505Y-121192312D01*
X96192312Y-120978505D01*
X96250000Y-120892169D01*
X96307688Y-120978505D01*
X96521495Y-121192312D01*
X96772905Y-121360299D01*
X97052257Y-121476011D01*
X97348816Y-121535000D01*
X97651184Y-121535000D01*
X97756764Y-121513999D01*
X105920506Y-129677742D01*
X105948341Y-129711659D01*
X106083709Y-129822753D01*
X106238149Y-129905303D01*
X106304058Y-129925296D01*
X106405724Y-129956136D01*
X106438924Y-129959406D01*
X106536333Y-129969000D01*
X106536339Y-129969000D01*
X106579999Y-129973300D01*
X106623659Y-129969000D01*
X109557649Y-129969000D01*
X109705655Y-130149345D01*
X109934821Y-130337417D01*
X109958362Y-130350000D01*
X109934821Y-130362583D01*
X109705655Y-130550655D01*
X109517583Y-130779821D01*
X109377834Y-131041275D01*
X109291776Y-131324968D01*
X109280783Y-131436584D01*
X96902259Y-143815109D01*
X96868342Y-143842944D01*
X96840507Y-143876861D01*
X96840505Y-143876863D01*
X96757248Y-143978312D01*
X96674698Y-144132751D01*
X96623864Y-144300329D01*
X96606700Y-144474603D01*
X96611001Y-144518273D01*
X96611000Y-148747882D01*
X96521495Y-148807688D01*
X96307688Y-149021495D01*
X96250000Y-149107831D01*
X96192312Y-149021495D01*
X95978505Y-148807688D01*
X95727095Y-148639701D01*
X95447743Y-148523989D01*
X95151184Y-148465000D01*
X94848816Y-148465000D01*
X94552257Y-148523989D01*
X94272905Y-148639701D01*
X94021495Y-148807688D01*
X93807688Y-149021495D01*
X93639701Y-149272905D01*
X93523989Y-149552257D01*
X93465000Y-149848816D01*
X93465000Y-150151184D01*
X93523989Y-150447743D01*
X93639701Y-150727095D01*
X93807688Y-150978505D01*
X94021495Y-151192312D01*
X94272905Y-151360299D01*
X94552257Y-151476011D01*
X94848816Y-151535000D01*
X95151184Y-151535000D01*
X95447743Y-151476011D01*
X95727095Y-151360299D01*
X95978505Y-151192312D01*
X96192312Y-150978505D01*
X96250000Y-150892169D01*
X96307688Y-150978505D01*
X96521495Y-151192312D01*
X96772905Y-151360299D01*
X97052257Y-151476011D01*
X97348816Y-151535000D01*
X97651184Y-151535000D01*
X97947743Y-151476011D01*
X98227095Y-151360299D01*
X98478505Y-151192312D01*
X98516120Y-151154697D01*
X98569463Y-151254494D01*
X98648815Y-151351185D01*
X98745506Y-151430537D01*
X98855820Y-151489502D01*
X98975518Y-151525812D01*
X99100000Y-151538072D01*
X99714250Y-151535000D01*
X99873000Y-151376250D01*
X99873000Y-150127000D01*
X100127000Y-150127000D01*
X100127000Y-151376250D01*
X100285750Y-151535000D01*
X100900000Y-151538072D01*
X101024482Y-151525812D01*
X101144180Y-151489502D01*
X101254494Y-151430537D01*
X101351185Y-151351185D01*
X101430537Y-151254494D01*
X101489502Y-151144180D01*
X101525812Y-151024482D01*
X101538072Y-150900000D01*
X101535000Y-150285750D01*
X101376250Y-150127000D01*
X100127000Y-150127000D01*
X99873000Y-150127000D01*
X99853000Y-150127000D01*
X99853000Y-149873000D01*
X99873000Y-149873000D01*
X99873000Y-148623750D01*
X100127000Y-148623750D01*
X100127000Y-149873000D01*
X101376250Y-149873000D01*
X101535000Y-149714250D01*
X101538072Y-149100000D01*
X101525812Y-148975518D01*
X101489502Y-148855820D01*
X101430537Y-148745506D01*
X101351185Y-148648815D01*
X101254494Y-148569463D01*
X101144180Y-148510498D01*
X101024482Y-148474188D01*
X100900000Y-148461928D01*
X100285750Y-148465000D01*
X100127000Y-148623750D01*
X99873000Y-148623750D01*
X99714250Y-148465000D01*
X99100000Y-148461928D01*
X98975518Y-148474188D01*
X98855820Y-148510498D01*
X98745506Y-148569463D01*
X98648815Y-148648815D01*
X98569463Y-148745506D01*
X98516120Y-148845303D01*
X98478505Y-148807688D01*
X98389000Y-148747883D01*
X98389000Y-144842838D01*
X100311172Y-142920666D01*
X100333867Y-143151088D01*
X100447943Y-143527147D01*
X100633193Y-143873725D01*
X100882498Y-144177503D01*
X101186276Y-144426807D01*
X101532854Y-144612057D01*
X101908913Y-144726133D01*
X102300000Y-144764652D01*
X102691088Y-144726133D01*
X103067147Y-144612057D01*
X103225010Y-144527677D01*
X103225011Y-167492356D01*
X96902264Y-173815104D01*
X96868341Y-173842944D01*
X96757247Y-173978313D01*
X96674697Y-174132753D01*
X96623864Y-174300330D01*
X96611000Y-174430937D01*
X96611000Y-174430943D01*
X96606700Y-174474603D01*
X96611000Y-174518263D01*
X96611001Y-178747882D01*
X96521495Y-178807688D01*
X96307688Y-179021495D01*
X96250000Y-179107831D01*
X96192312Y-179021495D01*
X95978505Y-178807688D01*
X95727095Y-178639701D01*
X95447743Y-178523989D01*
X95151184Y-178465000D01*
X94848816Y-178465000D01*
X94552257Y-178523989D01*
X94272905Y-178639701D01*
X94021495Y-178807688D01*
X93807688Y-179021495D01*
X93639701Y-179272905D01*
X93523989Y-179552257D01*
X93465000Y-179848816D01*
X93465000Y-180151184D01*
X93523989Y-180447743D01*
X93639701Y-180727095D01*
X93807688Y-180978505D01*
X94021495Y-181192312D01*
X94242525Y-181340000D01*
X89660000Y-181340000D01*
X89660000Y-172142003D01*
X90705000Y-172142003D01*
X90705000Y-172857998D01*
X90733867Y-173151088D01*
X90847943Y-173527147D01*
X91033193Y-173873725D01*
X91282498Y-174177503D01*
X91586276Y-174426807D01*
X91932854Y-174612057D01*
X92308913Y-174726133D01*
X92700000Y-174764652D01*
X93091088Y-174726133D01*
X93467147Y-174612057D01*
X93813725Y-174426807D01*
X94117503Y-174177503D01*
X94366807Y-173873725D01*
X94552057Y-173527147D01*
X94666133Y-173151087D01*
X94695000Y-172857997D01*
X94695000Y-172142002D01*
X94666133Y-171848912D01*
X94552057Y-171472853D01*
X94366807Y-171126275D01*
X94117503Y-170822497D01*
X93813725Y-170573193D01*
X93467146Y-170387943D01*
X93091087Y-170273867D01*
X92700000Y-170235348D01*
X92308912Y-170273867D01*
X91932853Y-170387943D01*
X91586275Y-170573193D01*
X91282497Y-170822497D01*
X91033193Y-171126275D01*
X90847943Y-171472854D01*
X90733867Y-171848913D01*
X90705000Y-172142003D01*
X89660000Y-172142003D01*
X89660000Y-163858665D01*
X93565000Y-163858665D01*
X93565000Y-164141335D01*
X93620147Y-164418574D01*
X93728320Y-164679727D01*
X93885363Y-164914759D01*
X94085241Y-165114637D01*
X94320273Y-165271680D01*
X94581426Y-165379853D01*
X94858665Y-165435000D01*
X95141335Y-165435000D01*
X95418574Y-165379853D01*
X95679727Y-165271680D01*
X95914759Y-165114637D01*
X96114637Y-164914759D01*
X96271680Y-164679727D01*
X96379853Y-164418574D01*
X96435000Y-164141335D01*
X96435000Y-164018665D01*
X99565000Y-164018665D01*
X99565000Y-164301335D01*
X99620147Y-164578574D01*
X99728320Y-164839727D01*
X99885363Y-165074759D01*
X100085241Y-165274637D01*
X100320273Y-165431680D01*
X100581426Y-165539853D01*
X100858665Y-165595000D01*
X101141335Y-165595000D01*
X101418574Y-165539853D01*
X101679727Y-165431680D01*
X101914759Y-165274637D01*
X102114637Y-165074759D01*
X102271680Y-164839727D01*
X102379853Y-164578574D01*
X102435000Y-164301335D01*
X102435000Y-164018665D01*
X102379853Y-163741426D01*
X102271680Y-163480273D01*
X102114637Y-163245241D01*
X101914759Y-163045363D01*
X101679727Y-162888320D01*
X101418574Y-162780147D01*
X101141335Y-162725000D01*
X100858665Y-162725000D01*
X100581426Y-162780147D01*
X100320273Y-162888320D01*
X100085241Y-163045363D01*
X99885363Y-163245241D01*
X99728320Y-163480273D01*
X99620147Y-163741426D01*
X99565000Y-164018665D01*
X96435000Y-164018665D01*
X96435000Y-163858665D01*
X96379853Y-163581426D01*
X96271680Y-163320273D01*
X96114637Y-163085241D01*
X95914759Y-162885363D01*
X95679727Y-162728320D01*
X95418574Y-162620147D01*
X95141335Y-162565000D01*
X94858665Y-162565000D01*
X94581426Y-162620147D01*
X94320273Y-162728320D01*
X94085241Y-162885363D01*
X93885363Y-163085241D01*
X93728320Y-163320273D01*
X93620147Y-163581426D01*
X93565000Y-163858665D01*
X89660000Y-163858665D01*
X89660000Y-153698665D01*
X93565000Y-153698665D01*
X93565000Y-153981335D01*
X93620147Y-154258574D01*
X93728320Y-154519727D01*
X93885363Y-154754759D01*
X94085241Y-154954637D01*
X94320273Y-155111680D01*
X94581426Y-155219853D01*
X94858665Y-155275000D01*
X95141335Y-155275000D01*
X95418574Y-155219853D01*
X95679727Y-155111680D01*
X95914759Y-154954637D01*
X96114637Y-154754759D01*
X96271680Y-154519727D01*
X96379853Y-154258574D01*
X96435000Y-153981335D01*
X96435000Y-153858665D01*
X99565000Y-153858665D01*
X99565000Y-154141335D01*
X99620147Y-154418574D01*
X99728320Y-154679727D01*
X99885363Y-154914759D01*
X100085241Y-155114637D01*
X100320273Y-155271680D01*
X100581426Y-155379853D01*
X100858665Y-155435000D01*
X101141335Y-155435000D01*
X101418574Y-155379853D01*
X101679727Y-155271680D01*
X101914759Y-155114637D01*
X102114637Y-154914759D01*
X102271680Y-154679727D01*
X102379853Y-154418574D01*
X102435000Y-154141335D01*
X102435000Y-153858665D01*
X102379853Y-153581426D01*
X102271680Y-153320273D01*
X102114637Y-153085241D01*
X101914759Y-152885363D01*
X101679727Y-152728320D01*
X101418574Y-152620147D01*
X101141335Y-152565000D01*
X100858665Y-152565000D01*
X100581426Y-152620147D01*
X100320273Y-152728320D01*
X100085241Y-152885363D01*
X99885363Y-153085241D01*
X99728320Y-153320273D01*
X99620147Y-153581426D01*
X99565000Y-153858665D01*
X96435000Y-153858665D01*
X96435000Y-153698665D01*
X96379853Y-153421426D01*
X96271680Y-153160273D01*
X96114637Y-152925241D01*
X95914759Y-152725363D01*
X95679727Y-152568320D01*
X95418574Y-152460147D01*
X95141335Y-152405000D01*
X94858665Y-152405000D01*
X94581426Y-152460147D01*
X94320273Y-152568320D01*
X94085241Y-152725363D01*
X93885363Y-152925241D01*
X93728320Y-153160273D01*
X93620147Y-153421426D01*
X93565000Y-153698665D01*
X89660000Y-153698665D01*
X89660000Y-142142003D01*
X90705000Y-142142003D01*
X90705000Y-142857998D01*
X90733867Y-143151088D01*
X90847943Y-143527147D01*
X91033193Y-143873725D01*
X91282498Y-144177503D01*
X91586276Y-144426807D01*
X91932854Y-144612057D01*
X92308913Y-144726133D01*
X92700000Y-144764652D01*
X93091088Y-144726133D01*
X93467147Y-144612057D01*
X93813725Y-144426807D01*
X94117503Y-144177503D01*
X94366807Y-143873725D01*
X94552057Y-143527147D01*
X94666133Y-143151087D01*
X94695000Y-142857997D01*
X94695000Y-142142002D01*
X94666133Y-141848912D01*
X94552057Y-141472853D01*
X94366807Y-141126275D01*
X94117503Y-140822497D01*
X93813725Y-140573193D01*
X93467146Y-140387943D01*
X93091087Y-140273867D01*
X92700000Y-140235348D01*
X92308912Y-140273867D01*
X91932853Y-140387943D01*
X91586275Y-140573193D01*
X91282497Y-140822497D01*
X91033193Y-141126275D01*
X90847943Y-141472854D01*
X90733867Y-141848913D01*
X90705000Y-142142003D01*
X89660000Y-142142003D01*
X89660000Y-124858665D01*
X93405000Y-124858665D01*
X93405000Y-125141335D01*
X93460147Y-125418574D01*
X93568320Y-125679727D01*
X93725363Y-125914759D01*
X93925241Y-126114637D01*
X94160273Y-126271680D01*
X94421426Y-126379853D01*
X94698665Y-126435000D01*
X94981335Y-126435000D01*
X95258574Y-126379853D01*
X95519727Y-126271680D01*
X95754759Y-126114637D01*
X95954637Y-125914759D01*
X96111680Y-125679727D01*
X96219853Y-125418574D01*
X96275000Y-125141335D01*
X96275000Y-124858665D01*
X96219853Y-124581426D01*
X96111680Y-124320273D01*
X95954637Y-124085241D01*
X95754759Y-123885363D01*
X95519727Y-123728320D01*
X95258574Y-123620147D01*
X94981335Y-123565000D01*
X94698665Y-123565000D01*
X94421426Y-123620147D01*
X94160273Y-123728320D01*
X93925241Y-123885363D01*
X93725363Y-124085241D01*
X93568320Y-124320273D01*
X93460147Y-124581426D01*
X93405000Y-124858665D01*
X89660000Y-124858665D01*
X89660000Y-112142003D01*
X90705000Y-112142003D01*
X90705000Y-112857998D01*
X90733867Y-113151088D01*
X90847943Y-113527147D01*
X91033193Y-113873725D01*
X91282498Y-114177503D01*
X91586276Y-114426807D01*
X91932854Y-114612057D01*
X92308913Y-114726133D01*
X92700000Y-114764652D01*
X93091088Y-114726133D01*
X93467147Y-114612057D01*
X93813725Y-114426807D01*
X94117503Y-114177503D01*
X94366807Y-113873725D01*
X94552057Y-113527147D01*
X94666133Y-113151087D01*
X94695000Y-112857997D01*
X94695000Y-112142003D01*
X100305000Y-112142003D01*
X100305000Y-112857998D01*
X100333867Y-113151088D01*
X100447943Y-113527147D01*
X100633193Y-113873725D01*
X100882498Y-114177503D01*
X101186276Y-114426807D01*
X101532854Y-114612057D01*
X101908913Y-114726133D01*
X102300000Y-114764652D01*
X102691088Y-114726133D01*
X103067147Y-114612057D01*
X103413725Y-114426807D01*
X103717503Y-114177503D01*
X103966807Y-113873725D01*
X104152057Y-113527147D01*
X104266133Y-113151087D01*
X104295000Y-112857997D01*
X104295000Y-112142002D01*
X104266133Y-111848912D01*
X104152057Y-111472853D01*
X103966807Y-111126275D01*
X103717503Y-110822497D01*
X103413725Y-110573193D01*
X103067146Y-110387943D01*
X102691087Y-110273867D01*
X102300000Y-110235348D01*
X101908912Y-110273867D01*
X101532853Y-110387943D01*
X101186275Y-110573193D01*
X100882497Y-110822497D01*
X100633193Y-111126275D01*
X100447943Y-111472854D01*
X100333867Y-111848913D01*
X100305000Y-112142003D01*
X94695000Y-112142003D01*
X94695000Y-112142002D01*
X94666133Y-111848912D01*
X94552057Y-111472853D01*
X94366807Y-111126275D01*
X94117503Y-110822497D01*
X93813725Y-110573193D01*
X93467146Y-110387943D01*
X93091087Y-110273867D01*
X92700000Y-110235348D01*
X92308912Y-110273867D01*
X91932853Y-110387943D01*
X91586275Y-110573193D01*
X91282497Y-110822497D01*
X91033193Y-111126275D01*
X90847943Y-111472854D01*
X90733867Y-111848913D01*
X90705000Y-112142003D01*
X89660000Y-112142003D01*
X89660000Y-93858665D01*
X93405000Y-93858665D01*
X93405000Y-94141335D01*
X93460147Y-94418574D01*
X93568320Y-94679727D01*
X93725363Y-94914759D01*
X93925241Y-95114637D01*
X94160273Y-95271680D01*
X94421426Y-95379853D01*
X94698665Y-95435000D01*
X94981335Y-95435000D01*
X95258574Y-95379853D01*
X95519727Y-95271680D01*
X95754759Y-95114637D01*
X95954637Y-94914759D01*
X96111680Y-94679727D01*
X96219853Y-94418574D01*
X96275000Y-94141335D01*
X96275000Y-93858665D01*
X96219853Y-93581426D01*
X96111680Y-93320273D01*
X95954637Y-93085241D01*
X95754759Y-92885363D01*
X95519727Y-92728320D01*
X95258574Y-92620147D01*
X94981335Y-92565000D01*
X94698665Y-92565000D01*
X94421426Y-92620147D01*
X94160273Y-92728320D01*
X93925241Y-92885363D01*
X93725363Y-93085241D01*
X93568320Y-93320273D01*
X93460147Y-93581426D01*
X93405000Y-93858665D01*
X89660000Y-93858665D01*
X89660000Y-82142003D01*
X90705000Y-82142003D01*
X90705000Y-82857998D01*
X90733867Y-83151088D01*
X90847943Y-83527147D01*
X91033193Y-83873725D01*
X91282498Y-84177503D01*
X91586276Y-84426807D01*
X91932854Y-84612057D01*
X92308913Y-84726133D01*
X92700000Y-84764652D01*
X93091088Y-84726133D01*
X93467147Y-84612057D01*
X93813725Y-84426807D01*
X94117503Y-84177503D01*
X94366807Y-83873725D01*
X94552057Y-83527147D01*
X94666133Y-83151087D01*
X94695000Y-82857997D01*
X94695000Y-82142003D01*
X100305000Y-82142003D01*
X100305000Y-82857998D01*
X100333867Y-83151088D01*
X100447943Y-83527147D01*
X100633193Y-83873725D01*
X100882498Y-84177503D01*
X101186276Y-84426807D01*
X101532854Y-84612057D01*
X101908913Y-84726133D01*
X102300000Y-84764652D01*
X102691088Y-84726133D01*
X103067147Y-84612057D01*
X103413725Y-84426807D01*
X103717503Y-84177503D01*
X103966807Y-83873725D01*
X104152057Y-83527147D01*
X104266133Y-83151087D01*
X104295000Y-82857997D01*
X104295000Y-82142002D01*
X104266133Y-81848912D01*
X104152057Y-81472853D01*
X103966807Y-81126275D01*
X103717503Y-80822497D01*
X103413725Y-80573193D01*
X103067146Y-80387943D01*
X102691087Y-80273867D01*
X102300000Y-80235348D01*
X101908912Y-80273867D01*
X101532853Y-80387943D01*
X101186275Y-80573193D01*
X100882497Y-80822497D01*
X100633193Y-81126275D01*
X100447943Y-81472854D01*
X100333867Y-81848913D01*
X100305000Y-82142003D01*
X94695000Y-82142003D01*
X94695000Y-82142002D01*
X94666133Y-81848912D01*
X94552057Y-81472853D01*
X94366807Y-81126275D01*
X94117503Y-80822497D01*
X93813725Y-80573193D01*
X93467146Y-80387943D01*
X93091087Y-80273867D01*
X92700000Y-80235348D01*
X92308912Y-80273867D01*
X91932853Y-80387943D01*
X91586275Y-80573193D01*
X91282497Y-80822497D01*
X91033193Y-81126275D01*
X90847943Y-81472854D01*
X90733867Y-81848913D01*
X90705000Y-82142003D01*
X89660000Y-82142003D01*
X89660000Y-76660000D01*
X115340000Y-76660000D01*
X115340001Y-181340000D01*
G37*
%TD.AperFunction*%
%TD*%
M02*
